<mxfile host="app.diagrams.net" agent="Mozilla/5.0 (Windows NT 10.0; Win64; x64; rv:131.0) Gecko/20100101 Firefox/131.0" version="24.7.17">
  <diagram name="Page-1" id="9f46799a-70d6-7492-0946-bef42562c5a5">
    <mxGraphModel dx="1434" dy="2481" grid="1" gridSize="10" guides="1" tooltips="1" connect="1" arrows="1" fold="1" page="1" pageScale="1" pageWidth="1100" pageHeight="850" background="none" math="0" shadow="0">
      <root>
        <mxCell id="0" />
        <mxCell id="1" parent="0" />
        <mxCell id="78961159f06e98e8-43" value="Game" style="swimlane;html=1;fontStyle=1;align=center;verticalAlign=top;childLayout=stackLayout;horizontal=1;startSize=26;horizontalStack=0;resizeParent=1;resizeLast=0;collapsible=1;marginBottom=0;swimlaneFillColor=#ffffff;rounded=0;shadow=0;comic=0;labelBackgroundColor=none;strokeWidth=1;fillColor=none;fontFamily=Verdana;fontSize=12" parent="1" vertex="1">
          <mxGeometry x="780" y="-1080" width="290" height="996" as="geometry" />
        </mxCell>
        <mxCell id="78961159f06e98e8-44" value="- keys: vector&amp;lt;GameKey&amp;gt;" style="text;html=1;strokeColor=none;fillColor=none;align=left;verticalAlign=top;spacingLeft=4;spacingRight=4;whiteSpace=wrap;overflow=hidden;rotatable=0;points=[[0,0.5],[1,0.5]];portConstraint=eastwest;" parent="78961159f06e98e8-43" vertex="1">
          <mxGeometry y="26" width="290" height="26" as="geometry" />
        </mxCell>
        <mxCell id="Nk5dwlSrIomL0-U4kEKp-17" value="- maze: unique_ptr&amp;lt;Maze&amp;gt;" style="text;html=1;strokeColor=none;fillColor=none;align=left;verticalAlign=top;spacingLeft=4;spacingRight=4;whiteSpace=wrap;overflow=hidden;rotatable=0;points=[[0,0.5],[1,0.5]];portConstraint=eastwest;" vertex="1" parent="78961159f06e98e8-43">
          <mxGeometry y="52" width="290" height="26" as="geometry" />
        </mxCell>
        <mxCell id="Nk5dwlSrIomL0-U4kEKp-18" value="- pacMan: unique_ptr&amp;lt;PacMan&amp;gt;" style="text;html=1;strokeColor=none;fillColor=none;align=left;verticalAlign=top;spacingLeft=4;spacingRight=4;whiteSpace=wrap;overflow=hidden;rotatable=0;points=[[0,0.5],[1,0.5]];portConstraint=eastwest;" vertex="1" parent="78961159f06e98e8-43">
          <mxGeometry y="78" width="290" height="26" as="geometry" />
        </mxCell>
        <mxCell id="Nk5dwlSrIomL0-U4kEKp-19" value="- screen: unique_ptr&amp;lt;Screen&amp;gt;" style="text;html=1;strokeColor=none;fillColor=none;align=left;verticalAlign=top;spacingLeft=4;spacingRight=4;whiteSpace=wrap;overflow=hidden;rotatable=0;points=[[0,0.5],[1,0.5]];portConstraint=eastwest;" vertex="1" parent="78961159f06e98e8-43">
          <mxGeometry y="104" width="290" height="26" as="geometry" />
        </mxCell>
        <mxCell id="Nk5dwlSrIomL0-U4kEKp-20" value="- draw: unique_ptr&amp;lt;Draw&amp;gt;" style="text;html=1;strokeColor=none;fillColor=none;align=left;verticalAlign=top;spacingLeft=4;spacingRight=4;whiteSpace=wrap;overflow=hidden;rotatable=0;points=[[0,0.5],[1,0.5]];portConstraint=eastwest;" vertex="1" parent="78961159f06e98e8-43">
          <mxGeometry y="130" width="290" height="26" as="geometry" />
        </mxCell>
        <mxCell id="Nk5dwlSrIomL0-U4kEKp-21" value="- score: unique_ptr&amp;lt;Score&amp;gt;" style="text;html=1;strokeColor=none;fillColor=none;align=left;verticalAlign=top;spacingLeft=4;spacingRight=4;whiteSpace=wrap;overflow=hidden;rotatable=0;points=[[0,0.5],[1,0.5]];portConstraint=eastwest;" vertex="1" parent="78961159f06e98e8-43">
          <mxGeometry y="156" width="290" height="26" as="geometry" />
        </mxCell>
        <mxCell id="Nk5dwlSrIomL0-U4kEKp-22" value="- playerLives: unique_ptr&amp;lt;Lives&amp;gt;" style="text;html=1;strokeColor=none;fillColor=none;align=left;verticalAlign=top;spacingLeft=4;spacingRight=4;whiteSpace=wrap;overflow=hidden;rotatable=0;points=[[0,0.5],[1,0.5]];portConstraint=eastwest;" vertex="1" parent="78961159f06e98e8-43">
          <mxGeometry y="182" width="290" height="26" as="geometry" />
        </mxCell>
        <mxCell id="Nk5dwlSrIomL0-U4kEKp-23" value="- updater: unique_ptr&amp;lt;Update&amp;gt;" style="text;html=1;strokeColor=none;fillColor=none;align=left;verticalAlign=top;spacingLeft=4;spacingRight=4;whiteSpace=wrap;overflow=hidden;rotatable=0;points=[[0,0.5],[1,0.5]];portConstraint=eastwest;" vertex="1" parent="78961159f06e98e8-43">
          <mxGeometry y="208" width="290" height="26" as="geometry" />
        </mxCell>
        <mxCell id="Nk5dwlSrIomL0-U4kEKp-24" value="- pacManManager: unique_ptr&amp;lt;PacManManager&amp;gt;" style="text;html=1;strokeColor=none;fillColor=none;align=left;verticalAlign=top;spacingLeft=4;spacingRight=4;whiteSpace=wrap;overflow=hidden;rotatable=0;points=[[0,0.5],[1,0.5]];portConstraint=eastwest;" vertex="1" parent="78961159f06e98e8-43">
          <mxGeometry y="234" width="290" height="26" as="geometry" />
        </mxCell>
        <mxCell id="Nk5dwlSrIomL0-U4kEKp-25" value="- ghosts: vector&amp;lt;unique_ptr&amp;lt;Ghost&amp;gt;&amp;gt;" style="text;html=1;strokeColor=none;fillColor=none;align=left;verticalAlign=top;spacingLeft=4;spacingRight=4;whiteSpace=wrap;overflow=hidden;rotatable=0;points=[[0,0.5],[1,0.5]];portConstraint=eastwest;" vertex="1" parent="78961159f06e98e8-43">
          <mxGeometry y="260" width="290" height="26" as="geometry" />
        </mxCell>
        <mxCell id="Nk5dwlSrIomL0-U4kEKp-26" value="- fruits: vector&amp;lt;unique_ptr&amp;lt;Fruit&amp;gt;&amp;gt;" style="text;html=1;strokeColor=none;fillColor=none;align=left;verticalAlign=top;spacingLeft=4;spacingRight=4;whiteSpace=wrap;overflow=hidden;rotatable=0;points=[[0,0.5],[1,0.5]];portConstraint=eastwest;" vertex="1" parent="78961159f06e98e8-43">
          <mxGeometry y="286" width="290" height="26" as="geometry" />
        </mxCell>
        <mxCell id="Nk5dwlSrIomL0-U4kEKp-27" value="- powerPellets: vector&amp;lt;unique_ptr&amp;lt;PowerPellet&amp;gt;&amp;gt;" style="text;html=1;strokeColor=none;fillColor=none;align=left;verticalAlign=top;spacingLeft=4;spacingRight=4;whiteSpace=wrap;overflow=hidden;rotatable=0;points=[[0,0.5],[1,0.5]];portConstraint=eastwest;" vertex="1" parent="78961159f06e98e8-43">
          <mxGeometry y="312" width="290" height="26" as="geometry" />
        </mxCell>
        <mxCell id="Nk5dwlSrIomL0-U4kEKp-28" value="- superPellets: vector&amp;lt;unique_ptr&amp;lt;SuperPellet&amp;gt;&amp;gt;" style="text;html=1;strokeColor=none;fillColor=none;align=left;verticalAlign=top;spacingLeft=4;spacingRight=4;whiteSpace=wrap;overflow=hidden;rotatable=0;points=[[0,0.5],[1,0.5]];portConstraint=eastwest;" vertex="1" parent="78961159f06e98e8-43">
          <mxGeometry y="338" width="290" height="26" as="geometry" />
        </mxCell>
        <mxCell id="Nk5dwlSrIomL0-U4kEKp-29" value="- stars: vector&amp;lt;unique_ptr&amp;lt;Star&amp;gt;&amp;gt;" style="text;html=1;strokeColor=none;fillColor=none;align=left;verticalAlign=top;spacingLeft=4;spacingRight=4;whiteSpace=wrap;overflow=hidden;rotatable=0;points=[[0,0.5],[1,0.5]];portConstraint=eastwest;" vertex="1" parent="78961159f06e98e8-43">
          <mxGeometry y="364" width="290" height="26" as="geometry" />
        </mxCell>
        <mxCell id="Nk5dwlSrIomL0-U4kEKp-16" value="- isRunning: bool&lt;span style=&quot;white-space: pre;&quot;&gt;&#x9;&lt;/span&gt;" style="text;html=1;strokeColor=none;fillColor=none;align=left;verticalAlign=top;spacingLeft=4;spacingRight=4;whiteSpace=wrap;overflow=hidden;rotatable=0;points=[[0,0.5],[1,0.5]];portConstraint=eastwest;" vertex="1" parent="78961159f06e98e8-43">
          <mxGeometry y="390" width="290" height="26" as="geometry" />
        </mxCell>
        <mxCell id="78961159f06e98e8-45" value="- totalFrames: int" style="text;html=1;strokeColor=none;fillColor=none;align=left;verticalAlign=top;spacingLeft=4;spacingRight=4;whiteSpace=wrap;overflow=hidden;rotatable=0;points=[[0,0.5],[1,0.5]];portConstraint=eastwest;" parent="78961159f06e98e8-43" vertex="1">
          <mxGeometry y="416" width="290" height="26" as="geometry" />
        </mxCell>
        <mxCell id="78961159f06e98e8-49" value="- pacManDirection: Direction" style="text;html=1;strokeColor=none;fillColor=none;align=left;verticalAlign=top;spacingLeft=4;spacingRight=4;whiteSpace=wrap;overflow=hidden;rotatable=0;points=[[0,0.5],[1,0.5]];portConstraint=eastwest;" parent="78961159f06e98e8-43" vertex="1">
          <mxGeometry y="442" width="290" height="26" as="geometry" />
        </mxCell>
        <mxCell id="78961159f06e98e8-50" value="- ghostDirection: Direction" style="text;html=1;strokeColor=none;fillColor=none;align=left;verticalAlign=top;spacingLeft=4;spacingRight=4;whiteSpace=wrap;overflow=hidden;rotatable=0;points=[[0,0.5],[1,0.5]];portConstraint=eastwest;" parent="78961159f06e98e8-43" vertex="1">
          <mxGeometry y="468" width="290" height="26" as="geometry" />
        </mxCell>
        <mxCell id="Nk5dwlSrIomL0-U4kEKp-1" value="- pacManOldDirection: Direction" style="text;html=1;strokeColor=none;fillColor=none;align=left;verticalAlign=top;spacingLeft=4;spacingRight=4;whiteSpace=wrap;overflow=hidden;rotatable=0;points=[[0,0.5],[1,0.5]];portConstraint=eastwest;" vertex="1" parent="78961159f06e98e8-43">
          <mxGeometry y="494" width="290" height="26" as="geometry" />
        </mxCell>
        <mxCell id="Nk5dwlSrIomL0-U4kEKp-2" value="&lt;div&gt;- window: Window&lt;/div&gt;&lt;div&gt;&lt;br&gt;&lt;/div&gt;" style="text;html=1;strokeColor=none;fillColor=none;align=left;verticalAlign=top;spacingLeft=4;spacingRight=4;whiteSpace=wrap;overflow=hidden;rotatable=0;points=[[0,0.5],[1,0.5]];portConstraint=eastwest;" vertex="1" parent="78961159f06e98e8-43">
          <mxGeometry y="520" width="290" height="26" as="geometry" />
        </mxCell>
        <mxCell id="Nk5dwlSrIomL0-U4kEKp-3" value="- frame: int" style="text;html=1;strokeColor=none;fillColor=none;align=left;verticalAlign=top;spacingLeft=4;spacingRight=4;whiteSpace=wrap;overflow=hidden;rotatable=0;points=[[0,0.5],[1,0.5]];portConstraint=eastwest;" vertex="1" parent="78961159f06e98e8-43">
          <mxGeometry y="546" width="290" height="26" as="geometry" />
        </mxCell>
        <mxCell id="Nk5dwlSrIomL0-U4kEKp-4" value="- gameWon: bool" style="text;html=1;strokeColor=none;fillColor=none;align=left;verticalAlign=top;spacingLeft=4;spacingRight=4;whiteSpace=wrap;overflow=hidden;rotatable=0;points=[[0,0.5],[1,0.5]];portConstraint=eastwest;" vertex="1" parent="78961159f06e98e8-43">
          <mxGeometry y="572" width="290" height="26" as="geometry" />
        </mxCell>
        <mxCell id="Nk5dwlSrIomL0-U4kEKp-8" value="- symbolCounter: int" style="text;html=1;strokeColor=none;fillColor=none;align=left;verticalAlign=top;spacingLeft=4;spacingRight=4;whiteSpace=wrap;overflow=hidden;rotatable=0;points=[[0,0.5],[1,0.5]];portConstraint=eastwest;" vertex="1" parent="78961159f06e98e8-43">
          <mxGeometry y="598" width="290" height="26" as="geometry" />
        </mxCell>
        <mxCell id="Nk5dwlSrIomL0-U4kEKp-12" value="- timerStart: float" style="text;html=1;strokeColor=none;fillColor=none;align=left;verticalAlign=top;spacingLeft=4;spacingRight=4;whiteSpace=wrap;overflow=hidden;rotatable=0;points=[[0,0.5],[1,0.5]];portConstraint=eastwest;" vertex="1" parent="78961159f06e98e8-43">
          <mxGeometry y="624" width="290" height="26" as="geometry" />
        </mxCell>
        <mxCell id="Nk5dwlSrIomL0-U4kEKp-7" value="- multi: int" style="text;html=1;strokeColor=none;fillColor=none;align=left;verticalAlign=top;spacingLeft=4;spacingRight=4;whiteSpace=wrap;overflow=hidden;rotatable=0;points=[[0,0.5],[1,0.5]];portConstraint=eastwest;" vertex="1" parent="78961159f06e98e8-43">
          <mxGeometry y="650" width="290" height="26" as="geometry" />
        </mxCell>
        <mxCell id="Nk5dwlSrIomL0-U4kEKp-9" value="- multi2: int" style="text;html=1;strokeColor=none;fillColor=none;align=left;verticalAlign=top;spacingLeft=4;spacingRight=4;whiteSpace=wrap;overflow=hidden;rotatable=0;points=[[0,0.5],[1,0.5]];portConstraint=eastwest;" vertex="1" parent="78961159f06e98e8-43">
          <mxGeometry y="676" width="290" height="26" as="geometry" />
        </mxCell>
        <mxCell id="Nk5dwlSrIomL0-U4kEKp-10" value="- num1: int" style="text;html=1;strokeColor=none;fillColor=none;align=left;verticalAlign=top;spacingLeft=4;spacingRight=4;whiteSpace=wrap;overflow=hidden;rotatable=0;points=[[0,0.5],[1,0.5]];portConstraint=eastwest;" vertex="1" parent="78961159f06e98e8-43">
          <mxGeometry y="702" width="290" height="26" as="geometry" />
        </mxCell>
        <mxCell id="Nk5dwlSrIomL0-U4kEKp-11" value="- num2: int" style="text;html=1;strokeColor=none;fillColor=none;align=left;verticalAlign=top;spacingLeft=4;spacingRight=4;whiteSpace=wrap;overflow=hidden;rotatable=0;points=[[0,0.5],[1,0.5]];portConstraint=eastwest;" vertex="1" parent="78961159f06e98e8-43">
          <mxGeometry y="728" width="290" height="26" as="geometry" />
        </mxCell>
        <mxCell id="Nk5dwlSrIomL0-U4kEKp-13" value="- num3: int" style="text;html=1;strokeColor=none;fillColor=none;align=left;verticalAlign=top;spacingLeft=4;spacingRight=4;whiteSpace=wrap;overflow=hidden;rotatable=0;points=[[0,0.5],[1,0.5]];portConstraint=eastwest;" vertex="1" parent="78961159f06e98e8-43">
          <mxGeometry y="754" width="290" height="26" as="geometry" />
        </mxCell>
        <mxCell id="Nk5dwlSrIomL0-U4kEKp-14" value="- powerPelletTimer: float" style="text;html=1;strokeColor=none;fillColor=none;align=left;verticalAlign=top;spacingLeft=4;spacingRight=4;whiteSpace=wrap;overflow=hidden;rotatable=0;points=[[0,0.5],[1,0.5]];portConstraint=eastwest;" vertex="1" parent="78961159f06e98e8-43">
          <mxGeometry y="780" width="290" height="26" as="geometry" />
        </mxCell>
        <mxCell id="78961159f06e98e8-51" value="" style="line;html=1;strokeWidth=1;fillColor=none;align=left;verticalAlign=middle;spacingTop=-1;spacingLeft=3;spacingRight=3;rotatable=0;labelPosition=right;points=[];portConstraint=eastwest;" parent="78961159f06e98e8-43" vertex="1">
          <mxGeometry y="806" width="290" height="8" as="geometry" />
        </mxCell>
        <mxCell id="78961159f06e98e8-53" value="+ Game()" style="text;html=1;strokeColor=none;fillColor=none;align=left;verticalAlign=top;spacingLeft=4;spacingRight=4;whiteSpace=wrap;overflow=hidden;rotatable=0;points=[[0,0.5],[1,0.5]];portConstraint=eastwest;" parent="78961159f06e98e8-43" vertex="1">
          <mxGeometry y="814" width="290" height="26" as="geometry" />
        </mxCell>
        <mxCell id="Nk5dwlSrIomL0-U4kEKp-30" value="+ ~Game()" style="text;html=1;strokeColor=none;fillColor=none;align=left;verticalAlign=top;spacingLeft=4;spacingRight=4;whiteSpace=wrap;overflow=hidden;rotatable=0;points=[[0,0.5],[1,0.5]];portConstraint=eastwest;" vertex="1" parent="78961159f06e98e8-43">
          <mxGeometry y="840" width="290" height="26" as="geometry" />
        </mxCell>
        <mxCell id="Nk5dwlSrIomL0-U4kEKp-31" value="+ initialise(): void" style="text;html=1;strokeColor=none;fillColor=none;align=left;verticalAlign=top;spacingLeft=4;spacingRight=4;whiteSpace=wrap;overflow=hidden;rotatable=0;points=[[0,0.5],[1,0.5]];portConstraint=eastwest;" vertex="1" parent="78961159f06e98e8-43">
          <mxGeometry y="866" width="290" height="26" as="geometry" />
        </mxCell>
        <mxCell id="Nk5dwlSrIomL0-U4kEKp-32" value="+ run(): void" style="text;html=1;strokeColor=none;fillColor=none;align=left;verticalAlign=top;spacingLeft=4;spacingRight=4;whiteSpace=wrap;overflow=hidden;rotatable=0;points=[[0,0.5],[1,0.5]];portConstraint=eastwest;" vertex="1" parent="78961159f06e98e8-43">
          <mxGeometry y="892" width="290" height="26" as="geometry" />
        </mxCell>
        <mxCell id="Nk5dwlSrIomL0-U4kEKp-33" value="+ handleInput(inputKeys: int): void" style="text;html=1;strokeColor=none;fillColor=none;align=left;verticalAlign=top;spacingLeft=4;spacingRight=4;whiteSpace=wrap;overflow=hidden;rotatable=0;points=[[0,0.5],[1,0.5]];portConstraint=eastwest;" vertex="1" parent="78961159f06e98e8-43">
          <mxGeometry y="918" width="290" height="26" as="geometry" />
        </mxCell>
        <mxCell id="Nk5dwlSrIomL0-U4kEKp-34" value="+ update(): void" style="text;html=1;strokeColor=none;fillColor=none;align=left;verticalAlign=top;spacingLeft=4;spacingRight=4;whiteSpace=wrap;overflow=hidden;rotatable=0;points=[[0,0.5],[1,0.5]];portConstraint=eastwest;" vertex="1" parent="78961159f06e98e8-43">
          <mxGeometry y="944" width="290" height="26" as="geometry" />
        </mxCell>
        <mxCell id="Nk5dwlSrIomL0-U4kEKp-35" value="+ checkWinCondition(): void" style="text;html=1;strokeColor=none;fillColor=none;align=left;verticalAlign=top;spacingLeft=4;spacingRight=4;whiteSpace=wrap;overflow=hidden;rotatable=0;points=[[0,0.5],[1,0.5]];portConstraint=eastwest;" vertex="1" parent="78961159f06e98e8-43">
          <mxGeometry y="970" width="290" height="26" as="geometry" />
        </mxCell>
        <mxCell id="78961159f06e98e8-82" value="Draw" style="swimlane;html=1;fontStyle=1;align=center;verticalAlign=top;childLayout=stackLayout;horizontal=1;startSize=26;horizontalStack=0;resizeParent=1;resizeLast=0;collapsible=1;marginBottom=0;swimlaneFillColor=#ffffff;rounded=0;shadow=0;comic=0;labelBackgroundColor=none;strokeWidth=1;fillColor=none;fontFamily=Verdana;fontSize=12" parent="1" vertex="1">
          <mxGeometry x="670" y="190" width="490" height="1040" as="geometry" />
        </mxCell>
        <mxCell id="78961159f06e98e8-83" value="- maze: unique_ptr&amp;lt;Maze&amp;gt;" style="text;html=1;strokeColor=none;fillColor=none;align=left;verticalAlign=top;spacingLeft=4;spacingRight=4;whiteSpace=wrap;overflow=hidden;rotatable=0;points=[[0,0.5],[1,0.5]];portConstraint=eastwest;" parent="78961159f06e98e8-82" vertex="1">
          <mxGeometry y="26" width="490" height="26" as="geometry" />
        </mxCell>
        <mxCell id="78961159f06e98e8-84" value="- window: Window" style="text;html=1;strokeColor=none;fillColor=none;align=left;verticalAlign=top;spacingLeft=4;spacingRight=4;whiteSpace=wrap;overflow=hidden;rotatable=0;points=[[0,0.5],[1,0.5]];portConstraint=eastwest;" parent="78961159f06e98e8-82" vertex="1">
          <mxGeometry y="52" width="490" height="26" as="geometry" />
        </mxCell>
        <mxCell id="78961159f06e98e8-85" value="- num: int" style="text;html=1;strokeColor=none;fillColor=none;align=left;verticalAlign=top;spacingLeft=4;spacingRight=4;whiteSpace=wrap;overflow=hidden;rotatable=0;points=[[0,0.5],[1,0.5]];portConstraint=eastwest;" parent="78961159f06e98e8-82" vertex="1">
          <mxGeometry y="78" width="490" height="26" as="geometry" />
        </mxCell>
        <mxCell id="78961159f06e98e8-86" value="- eaten: bool" style="text;html=1;strokeColor=none;fillColor=none;align=left;verticalAlign=top;spacingLeft=4;spacingRight=4;whiteSpace=wrap;overflow=hidden;rotatable=0;points=[[0,0.5],[1,0.5]];portConstraint=eastwest;" parent="78961159f06e98e8-82" vertex="1">
          <mxGeometry y="104" width="490" height="26" as="geometry" />
        </mxCell>
        <mxCell id="78961159f06e98e8-87" value="- symbolActive: bool" style="text;html=1;strokeColor=none;fillColor=none;align=left;verticalAlign=top;spacingLeft=4;spacingRight=4;whiteSpace=wrap;overflow=hidden;rotatable=0;points=[[0,0.5],[1,0.5]];portConstraint=eastwest;" parent="78961159f06e98e8-82" vertex="1">
          <mxGeometry y="130" width="490" height="26" as="geometry" />
        </mxCell>
        <mxCell id="78961159f06e98e8-88" value="- picture: Texture2D" style="text;html=1;strokeColor=none;fillColor=none;align=left;verticalAlign=top;spacingLeft=4;spacingRight=4;whiteSpace=wrap;overflow=hidden;rotatable=0;points=[[0,0.5],[1,0.5]];portConstraint=eastwest;" parent="78961159f06e98e8-82" vertex="1">
          <mxGeometry y="156" width="490" height="26" as="geometry" />
        </mxCell>
        <mxCell id="78961159f06e98e8-89" value="- pacManTextures: vector&amp;lt;Texture2D&amp;gt;" style="text;html=1;strokeColor=none;fillColor=none;align=left;verticalAlign=top;spacingLeft=4;spacingRight=4;whiteSpace=wrap;overflow=hidden;rotatable=0;points=[[0,0.5],[1,0.5]];portConstraint=eastwest;" parent="78961159f06e98e8-82" vertex="1">
          <mxGeometry y="182" width="490" height="26" as="geometry" />
        </mxCell>
        <mxCell id="Nk5dwlSrIomL0-U4kEKp-39" value="- pacManTexturesBig: vector&amp;lt;Texture2D&amp;gt;" style="text;html=1;strokeColor=none;fillColor=none;align=left;verticalAlign=top;spacingLeft=4;spacingRight=4;whiteSpace=wrap;overflow=hidden;rotatable=0;points=[[0,0.5],[1,0.5]];portConstraint=eastwest;" vertex="1" parent="78961159f06e98e8-82">
          <mxGeometry y="208" width="490" height="26" as="geometry" />
        </mxCell>
        <mxCell id="Nk5dwlSrIomL0-U4kEKp-40" value="- ghostPicRight: Texture2D" style="text;html=1;strokeColor=none;fillColor=none;align=left;verticalAlign=top;spacingLeft=4;spacingRight=4;whiteSpace=wrap;overflow=hidden;rotatable=0;points=[[0,0.5],[1,0.5]];portConstraint=eastwest;" vertex="1" parent="78961159f06e98e8-82">
          <mxGeometry y="234" width="490" height="26" as="geometry" />
        </mxCell>
        <mxCell id="Nk5dwlSrIomL0-U4kEKp-41" value="- ghostFrightenedRight: Texture2D" style="text;html=1;strokeColor=none;fillColor=none;align=left;verticalAlign=top;spacingLeft=4;spacingRight=4;whiteSpace=wrap;overflow=hidden;rotatable=0;points=[[0,0.5],[1,0.5]];portConstraint=eastwest;" vertex="1" parent="78961159f06e98e8-82">
          <mxGeometry y="260" width="490" height="26" as="geometry" />
        </mxCell>
        <mxCell id="Nk5dwlSrIomL0-U4kEKp-42" value="- flattenedGhost: Texture2D" style="text;html=1;strokeColor=none;fillColor=none;align=left;verticalAlign=top;spacingLeft=4;spacingRight=4;whiteSpace=wrap;overflow=hidden;rotatable=0;points=[[0,0.5],[1,0.5]];portConstraint=eastwest;" vertex="1" parent="78961159f06e98e8-82">
          <mxGeometry y="286" width="490" height="26" as="geometry" />
        </mxCell>
        <mxCell id="Nk5dwlSrIomL0-U4kEKp-43" value="- pacManBig: Texture2D" style="text;html=1;strokeColor=none;fillColor=none;align=left;verticalAlign=top;spacingLeft=4;spacingRight=4;whiteSpace=wrap;overflow=hidden;rotatable=0;points=[[0,0.5],[1,0.5]];portConstraint=eastwest;" vertex="1" parent="78961159f06e98e8-82">
          <mxGeometry y="312" width="490" height="26" as="geometry" />
        </mxCell>
        <mxCell id="Nk5dwlSrIomL0-U4kEKp-44" value="- symbol1: Texture2D" style="text;html=1;strokeColor=none;fillColor=none;align=left;verticalAlign=top;spacingLeft=4;spacingRight=4;whiteSpace=wrap;overflow=hidden;rotatable=0;points=[[0,0.5],[1,0.5]];portConstraint=eastwest;" vertex="1" parent="78961159f06e98e8-82">
          <mxGeometry y="338" width="490" height="26" as="geometry" />
        </mxCell>
        <mxCell id="Nk5dwlSrIomL0-U4kEKp-45" value="- symbol2: Texture2D" style="text;html=1;strokeColor=none;fillColor=none;align=left;verticalAlign=top;spacingLeft=4;spacingRight=4;whiteSpace=wrap;overflow=hidden;rotatable=0;points=[[0,0.5],[1,0.5]];portConstraint=eastwest;" vertex="1" parent="78961159f06e98e8-82">
          <mxGeometry y="364" width="490" height="26" as="geometry" />
        </mxCell>
        <mxCell id="Nk5dwlSrIomL0-U4kEKp-46" value="- symbol3: Texture2D" style="text;html=1;strokeColor=none;fillColor=none;align=left;verticalAlign=top;spacingLeft=4;spacingRight=4;whiteSpace=wrap;overflow=hidden;rotatable=0;points=[[0,0.5],[1,0.5]];portConstraint=eastwest;" vertex="1" parent="78961159f06e98e8-82">
          <mxGeometry y="390" width="490" height="26" as="geometry" />
        </mxCell>
        <mxCell id="Nk5dwlSrIomL0-U4kEKp-47" value="- symbol4: Texture2D" style="text;html=1;strokeColor=none;fillColor=none;align=left;verticalAlign=top;spacingLeft=4;spacingRight=4;whiteSpace=wrap;overflow=hidden;rotatable=0;points=[[0,0.5],[1,0.5]];portConstraint=eastwest;" vertex="1" parent="78961159f06e98e8-82">
          <mxGeometry y="416" width="490" height="26" as="geometry" />
        </mxCell>
        <mxCell id="Nk5dwlSrIomL0-U4kEKp-48" value="- symbol5: Texture2D" style="text;html=1;strokeColor=none;fillColor=none;align=left;verticalAlign=top;spacingLeft=4;spacingRight=4;whiteSpace=wrap;overflow=hidden;rotatable=0;points=[[0,0.5],[1,0.5]];portConstraint=eastwest;" vertex="1" parent="78961159f06e98e8-82">
          <mxGeometry y="442" width="490" height="26" as="geometry" />
        </mxCell>
        <mxCell id="Nk5dwlSrIomL0-U4kEKp-49" value="- symbol6: Texture2D" style="text;html=1;strokeColor=none;fillColor=none;align=left;verticalAlign=top;spacingLeft=4;spacingRight=4;whiteSpace=wrap;overflow=hidden;rotatable=0;points=[[0,0.5],[1,0.5]];portConstraint=eastwest;" vertex="1" parent="78961159f06e98e8-82">
          <mxGeometry y="468" width="490" height="26" as="geometry" />
        </mxCell>
        <mxCell id="Nk5dwlSrIomL0-U4kEKp-50" value="- symbolLives: Texture2D" style="text;html=1;strokeColor=none;fillColor=none;align=left;verticalAlign=top;spacingLeft=4;spacingRight=4;whiteSpace=wrap;overflow=hidden;rotatable=0;points=[[0,0.5],[1,0.5]];portConstraint=eastwest;" vertex="1" parent="78961159f06e98e8-82">
          <mxGeometry y="494" width="490" height="26" as="geometry" />
        </mxCell>
        <mxCell id="Nk5dwlSrIomL0-U4kEKp-51" value="- keyTexture: Texture2D" style="text;html=1;strokeColor=none;fillColor=none;align=left;verticalAlign=top;spacingLeft=4;spacingRight=4;whiteSpace=wrap;overflow=hidden;rotatable=0;points=[[0,0.5],[1,0.5]];portConstraint=eastwest;" vertex="1" parent="78961159f06e98e8-82">
          <mxGeometry y="520" width="490" height="26" as="geometry" />
        </mxCell>
        <mxCell id="Nk5dwlSrIomL0-U4kEKp-52" value="- fruitPic: Texture2D" style="text;html=1;strokeColor=none;fillColor=none;align=left;verticalAlign=top;spacingLeft=4;spacingRight=4;whiteSpace=wrap;overflow=hidden;rotatable=0;points=[[0,0.5],[1,0.5]];portConstraint=eastwest;" vertex="1" parent="78961159f06e98e8-82">
          <mxGeometry y="546" width="490" height="26" as="geometry" />
        </mxCell>
        <mxCell id="Nk5dwlSrIomL0-U4kEKp-53" value="- powerPelletTexture: Texture2D" style="text;html=1;strokeColor=none;fillColor=none;align=left;verticalAlign=top;spacingLeft=4;spacingRight=4;whiteSpace=wrap;overflow=hidden;rotatable=0;points=[[0,0.5],[1,0.5]];portConstraint=eastwest;" vertex="1" parent="78961159f06e98e8-82">
          <mxGeometry y="572" width="490" height="26" as="geometry" />
        </mxCell>
        <mxCell id="Nk5dwlSrIomL0-U4kEKp-54" value="- superPelletTexture: Texture2D" style="text;html=1;strokeColor=none;fillColor=none;align=left;verticalAlign=top;spacingLeft=4;spacingRight=4;whiteSpace=wrap;overflow=hidden;rotatable=0;points=[[0,0.5],[1,0.5]];portConstraint=eastwest;" vertex="1" parent="78961159f06e98e8-82">
          <mxGeometry y="598" width="490" height="26" as="geometry" />
        </mxCell>
        <mxCell id="Nk5dwlSrIomL0-U4kEKp-55" value="- starTextures: vector&amp;lt;Texture2D&amp;gt;" style="text;html=1;strokeColor=none;fillColor=none;align=left;verticalAlign=top;spacingLeft=4;spacingRight=4;whiteSpace=wrap;overflow=hidden;rotatable=0;points=[[0,0.5],[1,0.5]];portConstraint=eastwest;" vertex="1" parent="78961159f06e98e8-82">
          <mxGeometry y="624" width="490" height="26" as="geometry" />
        </mxCell>
        <mxCell id="78961159f06e98e8-90" value="" style="line;html=1;strokeWidth=1;fillColor=none;align=left;verticalAlign=middle;spacingTop=-1;spacingLeft=3;spacingRight=3;rotatable=0;labelPosition=right;points=[];portConstraint=eastwest;" parent="78961159f06e98e8-82" vertex="1">
          <mxGeometry y="650" width="490" height="8" as="geometry" />
        </mxCell>
        <mxCell id="78961159f06e98e8-91" value="+ Draw()" style="text;html=1;strokeColor=none;fillColor=none;align=left;verticalAlign=top;spacingLeft=4;spacingRight=4;whiteSpace=wrap;overflow=hidden;rotatable=0;points=[[0,0.5],[1,0.5]];portConstraint=eastwest;" parent="78961159f06e98e8-82" vertex="1">
          <mxGeometry y="658" width="490" height="26" as="geometry" />
        </mxCell>
        <mxCell id="78961159f06e98e8-94" value="+ ~Draw()" style="text;html=1;strokeColor=none;fillColor=none;align=left;verticalAlign=top;spacingLeft=4;spacingRight=4;whiteSpace=wrap;overflow=hidden;rotatable=0;points=[[0,0.5],[1,0.5]];portConstraint=eastwest;" parent="78961159f06e98e8-82" vertex="1">
          <mxGeometry y="684" width="490" height="26" as="geometry" />
        </mxCell>
        <mxCell id="Nk5dwlSrIomL0-U4kEKp-56" value="+ drawFruits(fruit: vector&amp;lt;unique_ptr&amp;lt;Fruit&amp;gt;&amp;gt;&amp;amp;, num: int): void" style="text;html=1;strokeColor=none;fillColor=none;align=left;verticalAlign=top;spacingLeft=4;spacingRight=4;whiteSpace=wrap;overflow=hidden;rotatable=0;points=[[0,0.5],[1,0.5]];portConstraint=eastwest;" vertex="1" parent="78961159f06e98e8-82">
          <mxGeometry y="710" width="490" height="26" as="geometry" />
        </mxCell>
        <mxCell id="Nk5dwlSrIomL0-U4kEKp-57" value="+ drawGhost(ghost: Ghost&amp;amp;, pacman: PacMan&amp;amp;): void" style="text;html=1;strokeColor=none;fillColor=none;align=left;verticalAlign=top;spacingLeft=4;spacingRight=4;whiteSpace=wrap;overflow=hidden;rotatable=0;points=[[0,0.5],[1,0.5]];portConstraint=eastwest;" vertex="1" parent="78961159f06e98e8-82">
          <mxGeometry y="736" width="490" height="26" as="geometry" />
        </mxCell>
        <mxCell id="Nk5dwlSrIomL0-U4kEKp-58" value="+ drawKeys(keys: vector&amp;lt;GameKey&amp;gt;&amp;amp;): void" style="text;html=1;strokeColor=none;fillColor=none;align=left;verticalAlign=top;spacingLeft=4;spacingRight=4;whiteSpace=wrap;overflow=hidden;rotatable=0;points=[[0,0.5],[1,0.5]];portConstraint=eastwest;" vertex="1" parent="78961159f06e98e8-82">
          <mxGeometry y="762" width="490" height="26" as="geometry" />
        </mxCell>
        <mxCell id="Nk5dwlSrIomL0-U4kEKp-59" value="+ drawLives(lives: int): void" style="text;html=1;strokeColor=none;fillColor=none;align=left;verticalAlign=top;spacingLeft=4;spacingRight=4;whiteSpace=wrap;overflow=hidden;rotatable=0;points=[[0,0.5],[1,0.5]];portConstraint=eastwest;" vertex="1" parent="78961159f06e98e8-82">
          <mxGeometry y="788" width="490" height="26" as="geometry" />
        </mxCell>
        <mxCell id="Nk5dwlSrIomL0-U4kEKp-60" value="+ drawMaze(maze: Maze&amp;amp;): void" style="text;html=1;strokeColor=none;fillColor=none;align=left;verticalAlign=top;spacingLeft=4;spacingRight=4;whiteSpace=wrap;overflow=hidden;rotatable=0;points=[[0,0.5],[1,0.5]];portConstraint=eastwest;" vertex="1" parent="78961159f06e98e8-82">
          <mxGeometry y="814" width="490" height="26" as="geometry" />
        </mxCell>
        <mxCell id="Nk5dwlSrIomL0-U4kEKp-61" value="+ drawPacMan(pacman: PacMan&amp;amp;, frame: int, pacManDirection: Direction): void" style="text;html=1;strokeColor=none;fillColor=none;align=left;verticalAlign=top;spacingLeft=4;spacingRight=4;whiteSpace=wrap;overflow=hidden;rotatable=0;points=[[0,0.5],[1,0.5]];portConstraint=eastwest;" vertex="1" parent="78961159f06e98e8-82">
          <mxGeometry y="840" width="490" height="30" as="geometry" />
        </mxCell>
        <mxCell id="Nk5dwlSrIomL0-U4kEKp-62" value="+ drawPowerPellets(powerPellets: vector&amp;lt;unique_ptr&amp;lt;PowerPellet&amp;gt;&amp;gt;&amp;amp;): void" style="text;html=1;strokeColor=none;fillColor=none;align=left;verticalAlign=top;spacingLeft=4;spacingRight=4;whiteSpace=wrap;overflow=hidden;rotatable=0;points=[[0,0.5],[1,0.5]];portConstraint=eastwest;" vertex="1" parent="78961159f06e98e8-82">
          <mxGeometry y="870" width="490" height="26" as="geometry" />
        </mxCell>
        <mxCell id="Nk5dwlSrIomL0-U4kEKp-63" value="+ drawScores(score: Score&amp;amp;): void" style="text;html=1;strokeColor=none;fillColor=none;align=left;verticalAlign=top;spacingLeft=4;spacingRight=4;whiteSpace=wrap;overflow=hidden;rotatable=0;points=[[0,0.5],[1,0.5]];portConstraint=eastwest;" vertex="1" parent="78961159f06e98e8-82">
          <mxGeometry y="896" width="490" height="26" as="geometry" />
        </mxCell>
        <mxCell id="Nk5dwlSrIomL0-U4kEKp-64" value="+ drawStars(star: vector&amp;lt;unique_ptr&amp;lt;Star&amp;gt;&amp;gt;&amp;amp;): void" style="text;html=1;strokeColor=none;fillColor=none;align=left;verticalAlign=top;spacingLeft=4;spacingRight=4;whiteSpace=wrap;overflow=hidden;rotatable=0;points=[[0,0.5],[1,0.5]];portConstraint=eastwest;" vertex="1" parent="78961159f06e98e8-82">
          <mxGeometry y="922" width="490" height="26" as="geometry" />
        </mxCell>
        <mxCell id="Nk5dwlSrIomL0-U4kEKp-65" value="+ drawSuperPacMan(pacMan: PacMan&amp;amp;, frame: int, pacManDirection: Direction): void" style="text;html=1;strokeColor=none;fillColor=none;align=left;verticalAlign=top;spacingLeft=4;spacingRight=4;whiteSpace=wrap;overflow=hidden;rotatable=0;points=[[0,0.5],[1,0.5]];portConstraint=eastwest;" vertex="1" parent="78961159f06e98e8-82">
          <mxGeometry y="948" width="490" height="26" as="geometry" />
        </mxCell>
        <mxCell id="Nk5dwlSrIomL0-U4kEKp-66" value="+ drawSuperPellets(superPellets: vector&amp;lt;unique_ptr&amp;lt;SuperPellet&amp;gt;&amp;gt;&amp;amp;): void" style="text;html=1;strokeColor=none;fillColor=none;align=left;verticalAlign=top;spacingLeft=4;spacingRight=4;whiteSpace=wrap;overflow=hidden;rotatable=0;points=[[0,0.5],[1,0.5]];portConstraint=eastwest;" vertex="1" parent="78961159f06e98e8-82">
          <mxGeometry y="974" width="490" height="26" as="geometry" />
        </mxCell>
        <mxCell id="Nk5dwlSrIomL0-U4kEKp-67" value="+ drawSymbol(num1: int, num2: int): void" style="text;html=1;strokeColor=none;fillColor=none;align=left;verticalAlign=top;spacingLeft=4;spacingRight=4;whiteSpace=wrap;overflow=hidden;rotatable=0;points=[[0,0.5],[1,0.5]];portConstraint=eastwest;" vertex="1" parent="78961159f06e98e8-82">
          <mxGeometry y="1000" width="490" height="26" as="geometry" />
        </mxCell>
        <mxCell id="Nk5dwlSrIomL0-U4kEKp-68" value="Fruit" style="swimlane;fontStyle=1;align=center;verticalAlign=top;childLayout=stackLayout;horizontal=1;startSize=26;horizontalStack=0;resizeParent=1;resizeParentMax=0;resizeLast=0;collapsible=1;marginBottom=0;whiteSpace=wrap;html=1;" vertex="1" parent="1">
          <mxGeometry x="440" y="430" width="160" height="86" as="geometry" />
        </mxCell>
        <mxCell id="Nk5dwlSrIomL0-U4kEKp-70" value="" style="line;strokeWidth=1;fillColor=none;align=left;verticalAlign=middle;spacingTop=-1;spacingLeft=3;spacingRight=3;rotatable=0;labelPosition=right;points=[];portConstraint=eastwest;strokeColor=inherit;" vertex="1" parent="Nk5dwlSrIomL0-U4kEKp-68">
          <mxGeometry y="26" width="160" height="8" as="geometry" />
        </mxCell>
        <mxCell id="Nk5dwlSrIomL0-U4kEKp-71" value="+ Fruit(x: float, y: float)" style="text;strokeColor=none;fillColor=none;align=left;verticalAlign=top;spacingLeft=4;spacingRight=4;overflow=hidden;rotatable=0;points=[[0,0.5],[1,0.5]];portConstraint=eastwest;whiteSpace=wrap;html=1;" vertex="1" parent="Nk5dwlSrIomL0-U4kEKp-68">
          <mxGeometry y="34" width="160" height="26" as="geometry" />
        </mxCell>
        <mxCell id="Nk5dwlSrIomL0-U4kEKp-72" value="+ ~Fruit()" style="text;strokeColor=none;fillColor=none;align=left;verticalAlign=top;spacingLeft=4;spacingRight=4;overflow=hidden;rotatable=0;points=[[0,0.5],[1,0.5]];portConstraint=eastwest;whiteSpace=wrap;html=1;" vertex="1" parent="Nk5dwlSrIomL0-U4kEKp-68">
          <mxGeometry y="60" width="160" height="26" as="geometry" />
        </mxCell>
        <mxCell id="Nk5dwlSrIomL0-U4kEKp-73" value="GameInitialiser" style="swimlane;fontStyle=1;align=center;verticalAlign=top;childLayout=stackLayout;horizontal=1;startSize=26;horizontalStack=0;resizeParent=1;resizeParentMax=0;resizeLast=0;collapsible=1;marginBottom=0;whiteSpace=wrap;html=1;" vertex="1" parent="1">
          <mxGeometry x="120" y="40" width="290" height="190" as="geometry" />
        </mxCell>
        <mxCell id="Nk5dwlSrIomL0-U4kEKp-75" value="" style="line;strokeWidth=1;fillColor=none;align=left;verticalAlign=middle;spacingTop=-1;spacingLeft=3;spacingRight=3;rotatable=0;labelPosition=right;points=[];portConstraint=eastwest;strokeColor=inherit;" vertex="1" parent="Nk5dwlSrIomL0-U4kEKp-73">
          <mxGeometry y="26" width="290" height="8" as="geometry" />
        </mxCell>
        <mxCell id="Nk5dwlSrIomL0-U4kEKp-76" value="+ initialiseGameObjects(game: Game&amp;amp;): static void" style="text;strokeColor=none;fillColor=none;align=left;verticalAlign=top;spacingLeft=4;spacingRight=4;overflow=hidden;rotatable=0;points=[[0,0.5],[1,0.5]];portConstraint=eastwest;whiteSpace=wrap;html=1;" vertex="1" parent="Nk5dwlSrIomL0-U4kEKp-73">
          <mxGeometry y="34" width="290" height="26" as="geometry" />
        </mxCell>
        <mxCell id="Nk5dwlSrIomL0-U4kEKp-77" value="+ initialiseFruits(game: Game&amp;amp;): static void" style="text;strokeColor=none;fillColor=none;align=left;verticalAlign=top;spacingLeft=4;spacingRight=4;overflow=hidden;rotatable=0;points=[[0,0.5],[1,0.5]];portConstraint=eastwest;whiteSpace=wrap;html=1;" vertex="1" parent="Nk5dwlSrIomL0-U4kEKp-73">
          <mxGeometry y="60" width="290" height="26" as="geometry" />
        </mxCell>
        <mxCell id="Nk5dwlSrIomL0-U4kEKp-78" value="+ initialisePowerPellets(game: Game&amp;amp;): static void" style="text;strokeColor=none;fillColor=none;align=left;verticalAlign=top;spacingLeft=4;spacingRight=4;overflow=hidden;rotatable=0;points=[[0,0.5],[1,0.5]];portConstraint=eastwest;whiteSpace=wrap;html=1;" vertex="1" parent="Nk5dwlSrIomL0-U4kEKp-73">
          <mxGeometry y="86" width="290" height="26" as="geometry" />
        </mxCell>
        <mxCell id="Nk5dwlSrIomL0-U4kEKp-79" value="+ initialiseSuperPellets(game: Game&amp;amp;): static void" style="text;strokeColor=none;fillColor=none;align=left;verticalAlign=top;spacingLeft=4;spacingRight=4;overflow=hidden;rotatable=0;points=[[0,0.5],[1,0.5]];portConstraint=eastwest;whiteSpace=wrap;html=1;" vertex="1" parent="Nk5dwlSrIomL0-U4kEKp-73">
          <mxGeometry y="112" width="290" height="26" as="geometry" />
        </mxCell>
        <mxCell id="Nk5dwlSrIomL0-U4kEKp-80" value="+ initialiseKeys(game: Game&amp;amp;): static void" style="text;strokeColor=none;fillColor=none;align=left;verticalAlign=top;spacingLeft=4;spacingRight=4;overflow=hidden;rotatable=0;points=[[0,0.5],[1,0.5]];portConstraint=eastwest;whiteSpace=wrap;html=1;" vertex="1" parent="Nk5dwlSrIomL0-U4kEKp-73">
          <mxGeometry y="138" width="290" height="26" as="geometry" />
        </mxCell>
        <mxCell id="Nk5dwlSrIomL0-U4kEKp-81" value="+ initialiseStars(game: Game&amp;amp;) static void" style="text;strokeColor=none;fillColor=none;align=left;verticalAlign=top;spacingLeft=4;spacingRight=4;overflow=hidden;rotatable=0;points=[[0,0.5],[1,0.5]];portConstraint=eastwest;whiteSpace=wrap;html=1;" vertex="1" parent="Nk5dwlSrIomL0-U4kEKp-73">
          <mxGeometry y="164" width="290" height="26" as="geometry" />
        </mxCell>
        <mxCell id="Nk5dwlSrIomL0-U4kEKp-83" value="" style="endArrow=open;endFill=1;endSize=12;html=1;rounded=0;exitX=0.5;exitY=0;exitDx=0;exitDy=0;entryX=0;entryY=0.5;entryDx=0;entryDy=0;" edge="1" parent="1" source="Nk5dwlSrIomL0-U4kEKp-73" target="Nk5dwlSrIomL0-U4kEKp-10">
          <mxGeometry width="160" relative="1" as="geometry">
            <mxPoint x="590" y="-80" as="sourcePoint" />
            <mxPoint x="750" y="-80" as="targetPoint" />
            <Array as="points">
              <mxPoint x="260" y="-370" />
            </Array>
          </mxGeometry>
        </mxCell>
        <mxCell id="Nk5dwlSrIomL0-U4kEKp-84" value="Use" style="endArrow=open;endSize=12;dashed=1;html=1;rounded=0;" edge="1" parent="1">
          <mxGeometry width="160" relative="1" as="geometry">
            <mxPoint x="490" y="-180" as="sourcePoint" />
            <mxPoint x="650" y="-180" as="targetPoint" />
          </mxGeometry>
        </mxCell>
        <mxCell id="Nk5dwlSrIomL0-U4kEKp-85" value="" style="endArrow=open;endFill=1;endSize=12;html=1;rounded=0;entryX=0.5;entryY=0;entryDx=0;entryDy=0;exitX=0.462;exitY=1;exitDx=0;exitDy=0;exitPerimeter=0;" edge="1" parent="1" source="Nk5dwlSrIomL0-U4kEKp-35" target="78961159f06e98e8-82">
          <mxGeometry width="160" relative="1" as="geometry">
            <mxPoint x="590" y="-80" as="sourcePoint" />
            <mxPoint x="750" y="-80" as="targetPoint" />
          </mxGeometry>
        </mxCell>
        <mxCell id="Nk5dwlSrIomL0-U4kEKp-86" value="GameKey" style="swimlane;fontStyle=1;align=center;verticalAlign=top;childLayout=stackLayout;horizontal=1;startSize=26;horizontalStack=0;resizeParent=1;resizeParentMax=0;resizeLast=0;collapsible=1;marginBottom=0;whiteSpace=wrap;html=1;" vertex="1" parent="1">
          <mxGeometry x="60" y="430" width="340" height="112" as="geometry" />
        </mxCell>
        <mxCell id="Nk5dwlSrIomL0-U4kEKp-87" value="- wallsToUnlock: vector&amp;lt;int&amp;gt;" style="text;strokeColor=none;fillColor=none;align=left;verticalAlign=top;spacingLeft=4;spacingRight=4;overflow=hidden;rotatable=0;points=[[0,0.5],[1,0.5]];portConstraint=eastwest;whiteSpace=wrap;html=1;" vertex="1" parent="Nk5dwlSrIomL0-U4kEKp-86">
          <mxGeometry y="26" width="340" height="26" as="geometry" />
        </mxCell>
        <mxCell id="Nk5dwlSrIomL0-U4kEKp-88" value="" style="line;strokeWidth=1;fillColor=none;align=left;verticalAlign=middle;spacingTop=-1;spacingLeft=3;spacingRight=3;rotatable=0;labelPosition=right;points=[];portConstraint=eastwest;strokeColor=inherit;" vertex="1" parent="Nk5dwlSrIomL0-U4kEKp-86">
          <mxGeometry y="52" width="340" height="8" as="geometry" />
        </mxCell>
        <mxCell id="Nk5dwlSrIomL0-U4kEKp-89" value="+ GameKey(x: float, y: float, wallsToUnlock: vector&amp;lt;int&amp;gt;&amp;amp;)" style="text;strokeColor=none;fillColor=none;align=left;verticalAlign=top;spacingLeft=4;spacingRight=4;overflow=hidden;rotatable=0;points=[[0,0.5],[1,0.5]];portConstraint=eastwest;whiteSpace=wrap;html=1;" vertex="1" parent="Nk5dwlSrIomL0-U4kEKp-86">
          <mxGeometry y="60" width="340" height="26" as="geometry" />
        </mxCell>
        <mxCell id="Nk5dwlSrIomL0-U4kEKp-90" value="+ ~GameKey()" style="text;strokeColor=none;fillColor=none;align=left;verticalAlign=top;spacingLeft=4;spacingRight=4;overflow=hidden;rotatable=0;points=[[0,0.5],[1,0.5]];portConstraint=eastwest;whiteSpace=wrap;html=1;" vertex="1" parent="Nk5dwlSrIomL0-U4kEKp-86">
          <mxGeometry y="86" width="340" height="26" as="geometry" />
        </mxCell>
        <mxCell id="Nk5dwlSrIomL0-U4kEKp-92" value="Extends" style="endArrow=block;endSize=16;endFill=0;html=1;rounded=0;exitX=0.5;exitY=0;exitDx=0;exitDy=0;" edge="1" parent="1" source="Nk5dwlSrIomL0-U4kEKp-68">
          <mxGeometry width="160" relative="1" as="geometry">
            <mxPoint x="420" y="360" as="sourcePoint" />
            <mxPoint x="520" y="310" as="targetPoint" />
          </mxGeometry>
        </mxCell>
        <mxCell id="Nk5dwlSrIomL0-U4kEKp-93" value="Extends" style="endArrow=block;endSize=16;endFill=0;html=1;rounded=0;exitX=0.5;exitY=0;exitDx=0;exitDy=0;" edge="1" parent="1" source="Nk5dwlSrIomL0-U4kEKp-86">
          <mxGeometry width="160" relative="1" as="geometry">
            <mxPoint x="400" y="750" as="sourcePoint" />
            <mxPoint x="230" y="310" as="targetPoint" />
          </mxGeometry>
        </mxCell>
        <mxCell id="Nk5dwlSrIomL0-U4kEKp-94" value="Ghost" style="swimlane;fontStyle=1;align=center;verticalAlign=top;childLayout=stackLayout;horizontal=1;startSize=26;horizontalStack=0;resizeParent=1;resizeParentMax=0;resizeLast=0;collapsible=1;marginBottom=0;whiteSpace=wrap;html=1;" vertex="1" parent="1">
          <mxGeometry x="30" y="-1060" width="690" height="502" as="geometry" />
        </mxCell>
        <mxCell id="Nk5dwlSrIomL0-U4kEKp-95" value="- x: float" style="text;strokeColor=none;fillColor=none;align=left;verticalAlign=top;spacingLeft=4;spacingRight=4;overflow=hidden;rotatable=0;points=[[0,0.5],[1,0.5]];portConstraint=eastwest;whiteSpace=wrap;html=1;" vertex="1" parent="Nk5dwlSrIomL0-U4kEKp-94">
          <mxGeometry y="26" width="690" height="26" as="geometry" />
        </mxCell>
        <mxCell id="Nk5dwlSrIomL0-U4kEKp-98" value="- y: float" style="text;strokeColor=none;fillColor=none;align=left;verticalAlign=top;spacingLeft=4;spacingRight=4;overflow=hidden;rotatable=0;points=[[0,0.5],[1,0.5]];portConstraint=eastwest;whiteSpace=wrap;html=1;" vertex="1" parent="Nk5dwlSrIomL0-U4kEKp-94">
          <mxGeometry y="52" width="690" height="26" as="geometry" />
        </mxCell>
        <mxCell id="Nk5dwlSrIomL0-U4kEKp-101" value="- speed: float" style="text;strokeColor=none;fillColor=none;align=left;verticalAlign=top;spacingLeft=4;spacingRight=4;overflow=hidden;rotatable=0;points=[[0,0.5],[1,0.5]];portConstraint=eastwest;whiteSpace=wrap;html=1;" vertex="1" parent="Nk5dwlSrIomL0-U4kEKp-94">
          <mxGeometry y="78" width="690" height="26" as="geometry" />
        </mxCell>
        <mxCell id="Nk5dwlSrIomL0-U4kEKp-100" value="- direction: int" style="text;strokeColor=none;fillColor=none;align=left;verticalAlign=top;spacingLeft=4;spacingRight=4;overflow=hidden;rotatable=0;points=[[0,0.5],[1,0.5]];portConstraint=eastwest;whiteSpace=wrap;html=1;" vertex="1" parent="Nk5dwlSrIomL0-U4kEKp-94">
          <mxGeometry y="104" width="690" height="26" as="geometry" />
        </mxCell>
        <mxCell id="Nk5dwlSrIomL0-U4kEKp-104" value="- radius: int" style="text;strokeColor=none;fillColor=none;align=left;verticalAlign=top;spacingLeft=4;spacingRight=4;overflow=hidden;rotatable=0;points=[[0,0.5],[1,0.5]];portConstraint=eastwest;whiteSpace=wrap;html=1;" vertex="1" parent="Nk5dwlSrIomL0-U4kEKp-94">
          <mxGeometry y="130" width="690" height="26" as="geometry" />
        </mxCell>
        <mxCell id="Nk5dwlSrIomL0-U4kEKp-102" value="- frightened: bool" style="text;strokeColor=none;fillColor=none;align=left;verticalAlign=top;spacingLeft=4;spacingRight=4;overflow=hidden;rotatable=0;points=[[0,0.5],[1,0.5]];portConstraint=eastwest;whiteSpace=wrap;html=1;" vertex="1" parent="Nk5dwlSrIomL0-U4kEKp-94">
          <mxGeometry y="156" width="690" height="26" as="geometry" />
        </mxCell>
        <mxCell id="Nk5dwlSrIomL0-U4kEKp-99" value="- eaten: bool" style="text;strokeColor=none;fillColor=none;align=left;verticalAlign=top;spacingLeft=4;spacingRight=4;overflow=hidden;rotatable=0;points=[[0,0.5],[1,0.5]];portConstraint=eastwest;whiteSpace=wrap;html=1;" vertex="1" parent="Nk5dwlSrIomL0-U4kEKp-94">
          <mxGeometry y="182" width="690" height="26" as="geometry" />
        </mxCell>
        <mxCell id="Nk5dwlSrIomL0-U4kEKp-103" value="- startX: float" style="text;strokeColor=none;fillColor=none;align=left;verticalAlign=top;spacingLeft=4;spacingRight=4;overflow=hidden;rotatable=0;points=[[0,0.5],[1,0.5]];portConstraint=eastwest;whiteSpace=wrap;html=1;" vertex="1" parent="Nk5dwlSrIomL0-U4kEKp-94">
          <mxGeometry y="208" width="690" height="26" as="geometry" />
        </mxCell>
        <mxCell id="Nk5dwlSrIomL0-U4kEKp-105" value="- startY: float" style="text;strokeColor=none;fillColor=none;align=left;verticalAlign=top;spacingLeft=4;spacingRight=4;overflow=hidden;rotatable=0;points=[[0,0.5],[1,0.5]];portConstraint=eastwest;whiteSpace=wrap;html=1;" vertex="1" parent="Nk5dwlSrIomL0-U4kEKp-94">
          <mxGeometry y="234" width="690" height="26" as="geometry" />
        </mxCell>
        <mxCell id="Nk5dwlSrIomL0-U4kEKp-96" value="" style="line;strokeWidth=1;fillColor=none;align=left;verticalAlign=middle;spacingTop=-1;spacingLeft=3;spacingRight=3;rotatable=0;labelPosition=right;points=[];portConstraint=eastwest;strokeColor=inherit;" vertex="1" parent="Nk5dwlSrIomL0-U4kEKp-94">
          <mxGeometry y="260" width="690" height="8" as="geometry" />
        </mxCell>
        <mxCell id="Nk5dwlSrIomL0-U4kEKp-97" value="+ Ghost(startX: int, startY: int, speed: float)" style="text;strokeColor=none;fillColor=none;align=left;verticalAlign=top;spacingLeft=4;spacingRight=4;overflow=hidden;rotatable=0;points=[[0,0.5],[1,0.5]];portConstraint=eastwest;whiteSpace=wrap;html=1;" vertex="1" parent="Nk5dwlSrIomL0-U4kEKp-94">
          <mxGeometry y="268" width="690" height="26" as="geometry" />
        </mxCell>
        <mxCell id="Nk5dwlSrIomL0-U4kEKp-106" value="+ ~Ghost()" style="text;strokeColor=none;fillColor=none;align=left;verticalAlign=top;spacingLeft=4;spacingRight=4;overflow=hidden;rotatable=0;points=[[0,0.5],[1,0.5]];portConstraint=eastwest;whiteSpace=wrap;html=1;" vertex="1" parent="Nk5dwlSrIomL0-U4kEKp-94">
          <mxGeometry y="294" width="690" height="26" as="geometry" />
        </mxCell>
        <mxCell id="Nk5dwlSrIomL0-U4kEKp-107" value="+ respawn(): void" style="text;strokeColor=none;fillColor=none;align=left;verticalAlign=top;spacingLeft=4;spacingRight=4;overflow=hidden;rotatable=0;points=[[0,0.5],[1,0.5]];portConstraint=eastwest;whiteSpace=wrap;html=1;" vertex="1" parent="Nk5dwlSrIomL0-U4kEKp-94">
          <mxGeometry y="320" width="690" height="26" as="geometry" />
        </mxCell>
        <mxCell id="Nk5dwlSrIomL0-U4kEKp-108" value="+ chooseRandomDirection(maze: Maze&amp;amp;): void" style="text;strokeColor=none;fillColor=none;align=left;verticalAlign=top;spacingLeft=4;spacingRight=4;overflow=hidden;rotatable=0;points=[[0,0.5],[1,0.5]];portConstraint=eastwest;whiteSpace=wrap;html=1;" vertex="1" parent="Nk5dwlSrIomL0-U4kEKp-94">
          <mxGeometry y="346" width="690" height="26" as="geometry" />
        </mxCell>
        <mxCell id="Nk5dwlSrIomL0-U4kEKp-109" value="+ checkCollisionWithPacMan(pacMan: PacMan&amp;amp;) const: bool" style="text;strokeColor=none;fillColor=none;align=left;verticalAlign=top;spacingLeft=4;spacingRight=4;overflow=hidden;rotatable=0;points=[[0,0.5],[1,0.5]];portConstraint=eastwest;whiteSpace=wrap;html=1;" vertex="1" parent="Nk5dwlSrIomL0-U4kEKp-94">
          <mxGeometry y="372" width="690" height="26" as="geometry" />
        </mxCell>
        <mxCell id="Nk5dwlSrIomL0-U4kEKp-110" value="+ chooseNewDirection(maze Maze&amp;amp;): void" style="text;strokeColor=none;fillColor=none;align=left;verticalAlign=top;spacingLeft=4;spacingRight=4;overflow=hidden;rotatable=0;points=[[0,0.5],[1,0.5]];portConstraint=eastwest;whiteSpace=wrap;html=1;" vertex="1" parent="Nk5dwlSrIomL0-U4kEKp-94">
          <mxGeometry y="398" width="690" height="26" as="geometry" />
        </mxCell>
        <mxCell id="Nk5dwlSrIomL0-U4kEKp-111" value="+ ghostExcapeBox(direction: int, newX: auto, newY: auto, deltaTime: float): void" style="text;strokeColor=none;fillColor=none;align=left;verticalAlign=top;spacingLeft=4;spacingRight=4;overflow=hidden;rotatable=0;points=[[0,0.5],[1,0.5]];portConstraint=eastwest;whiteSpace=wrap;html=1;" vertex="1" parent="Nk5dwlSrIomL0-U4kEKp-94">
          <mxGeometry y="424" width="690" height="26" as="geometry" />
        </mxCell>
        <mxCell id="Nk5dwlSrIomL0-U4kEKp-112" value="+ ghostChasePacMan(direction: int, newX: auto, newY: auto, deltaTime: float, maze: Maze&amp;amp;, pacMan: PacMan&amp;amp;): void" style="text;strokeColor=none;fillColor=none;align=left;verticalAlign=top;spacingLeft=4;spacingRight=4;overflow=hidden;rotatable=0;points=[[0,0.5],[1,0.5]];portConstraint=eastwest;whiteSpace=wrap;html=1;" vertex="1" parent="Nk5dwlSrIomL0-U4kEKp-94">
          <mxGeometry y="450" width="690" height="26" as="geometry" />
        </mxCell>
        <mxCell id="Nk5dwlSrIomL0-U4kEKp-113" value="+ move(maze: Maze&amp;amp;, pacMan: PacMan&amp;amp;, deltaTime: float)" style="text;strokeColor=none;fillColor=none;align=left;verticalAlign=top;spacingLeft=4;spacingRight=4;overflow=hidden;rotatable=0;points=[[0,0.5],[1,0.5]];portConstraint=eastwest;whiteSpace=wrap;html=1;" vertex="1" parent="Nk5dwlSrIomL0-U4kEKp-94">
          <mxGeometry y="476" width="690" height="26" as="geometry" />
        </mxCell>
        <mxCell id="Nk5dwlSrIomL0-U4kEKp-114" value="" style="endArrow=block;dashed=1;endFill=0;endSize=12;html=1;rounded=0;exitX=0.5;exitY=1;exitDx=0;exitDy=0;" edge="1" parent="1" source="Nk5dwlSrIomL0-U4kEKp-94">
          <mxGeometry width="160" relative="1" as="geometry">
            <mxPoint x="250" y="-510" as="sourcePoint" />
            <mxPoint x="370" y="-510" as="targetPoint" />
          </mxGeometry>
        </mxCell>
        <mxCell id="Nk5dwlSrIomL0-U4kEKp-115" value="Maze" style="text;html=1;align=center;verticalAlign=middle;resizable=0;points=[];autosize=1;strokeColor=none;fillColor=none;" vertex="1" parent="1">
          <mxGeometry x="335" y="-492" width="50" height="30" as="geometry" />
        </mxCell>
        <mxCell id="Nk5dwlSrIomL0-U4kEKp-116" value="Pacman" style="text;html=1;align=center;verticalAlign=middle;resizable=0;points=[];autosize=1;strokeColor=none;fillColor=none;" vertex="1" parent="1">
          <mxGeometry x="445" y="-492" width="70" height="30" as="geometry" />
        </mxCell>
        <mxCell id="Nk5dwlSrIomL0-U4kEKp-117" value="" style="endArrow=block;dashed=1;endFill=0;endSize=12;html=1;rounded=0;exitX=0.75;exitY=1;exitDx=0;exitDy=0;" edge="1" parent="1" source="Nk5dwlSrIomL0-U4kEKp-94" target="Nk5dwlSrIomL0-U4kEKp-116">
          <mxGeometry width="160" relative="1" as="geometry">
            <mxPoint x="560" y="-460" as="sourcePoint" />
            <mxPoint x="720" y="-460" as="targetPoint" />
          </mxGeometry>
        </mxCell>
        <mxCell id="Nk5dwlSrIomL0-U4kEKp-119" value="" style="endArrow=none;html=1;rounded=0;exitX=0.5;exitY=0;exitDx=0;exitDy=0;entryX=0.5;entryY=0;entryDx=0;entryDy=0;" edge="1" parent="1" source="Nk5dwlSrIomL0-U4kEKp-94" target="78961159f06e98e8-43">
          <mxGeometry width="50" height="50" relative="1" as="geometry">
            <mxPoint x="650" y="-1100" as="sourcePoint" />
            <mxPoint x="700" y="-1150" as="targetPoint" />
            <Array as="points">
              <mxPoint x="375" y="-1150" />
              <mxPoint x="920" y="-1150" />
            </Array>
          </mxGeometry>
        </mxCell>
        <mxCell id="Nk5dwlSrIomL0-U4kEKp-120" value="Lives" style="swimlane;fontStyle=1;align=center;verticalAlign=top;childLayout=stackLayout;horizontal=1;startSize=26;horizontalStack=0;resizeParent=1;resizeParentMax=0;resizeLast=0;collapsible=1;marginBottom=0;whiteSpace=wrap;html=1;" vertex="1" parent="1">
          <mxGeometry x="50" y="-492" width="160" height="216" as="geometry" />
        </mxCell>
        <mxCell id="Nk5dwlSrIomL0-U4kEKp-121" value="- lives: int" style="text;strokeColor=none;fillColor=none;align=left;verticalAlign=top;spacingLeft=4;spacingRight=4;overflow=hidden;rotatable=0;points=[[0,0.5],[1,0.5]];portConstraint=eastwest;whiteSpace=wrap;html=1;" vertex="1" parent="Nk5dwlSrIomL0-U4kEKp-120">
          <mxGeometry y="26" width="160" height="26" as="geometry" />
        </mxCell>
        <mxCell id="Nk5dwlSrIomL0-U4kEKp-122" value="" style="line;strokeWidth=1;fillColor=none;align=left;verticalAlign=middle;spacingTop=-1;spacingLeft=3;spacingRight=3;rotatable=0;labelPosition=right;points=[];portConstraint=eastwest;strokeColor=inherit;" vertex="1" parent="Nk5dwlSrIomL0-U4kEKp-120">
          <mxGeometry y="52" width="160" height="8" as="geometry" />
        </mxCell>
        <mxCell id="Nk5dwlSrIomL0-U4kEKp-123" value="+ Lives(initialLives: int)" style="text;strokeColor=none;fillColor=none;align=left;verticalAlign=top;spacingLeft=4;spacingRight=4;overflow=hidden;rotatable=0;points=[[0,0.5],[1,0.5]];portConstraint=eastwest;whiteSpace=wrap;html=1;" vertex="1" parent="Nk5dwlSrIomL0-U4kEKp-120">
          <mxGeometry y="60" width="160" height="26" as="geometry" />
        </mxCell>
        <mxCell id="Nk5dwlSrIomL0-U4kEKp-124" value="+ ~Lives()" style="text;strokeColor=none;fillColor=none;align=left;verticalAlign=top;spacingLeft=4;spacingRight=4;overflow=hidden;rotatable=0;points=[[0,0.5],[1,0.5]];portConstraint=eastwest;whiteSpace=wrap;html=1;" vertex="1" parent="Nk5dwlSrIomL0-U4kEKp-120">
          <mxGeometry y="86" width="160" height="26" as="geometry" />
        </mxCell>
        <mxCell id="Nk5dwlSrIomL0-U4kEKp-125" value="+ loseLife(): void" style="text;strokeColor=none;fillColor=none;align=left;verticalAlign=top;spacingLeft=4;spacingRight=4;overflow=hidden;rotatable=0;points=[[0,0.5],[1,0.5]];portConstraint=eastwest;whiteSpace=wrap;html=1;" vertex="1" parent="Nk5dwlSrIomL0-U4kEKp-120">
          <mxGeometry y="112" width="160" height="26" as="geometry" />
        </mxCell>
        <mxCell id="Nk5dwlSrIomL0-U4kEKp-126" value="+ gainLife(): void" style="text;strokeColor=none;fillColor=none;align=left;verticalAlign=top;spacingLeft=4;spacingRight=4;overflow=hidden;rotatable=0;points=[[0,0.5],[1,0.5]];portConstraint=eastwest;whiteSpace=wrap;html=1;" vertex="1" parent="Nk5dwlSrIomL0-U4kEKp-120">
          <mxGeometry y="138" width="160" height="26" as="geometry" />
        </mxCell>
        <mxCell id="Nk5dwlSrIomL0-U4kEKp-127" value="+ getLives() const: int" style="text;strokeColor=none;fillColor=none;align=left;verticalAlign=top;spacingLeft=4;spacingRight=4;overflow=hidden;rotatable=0;points=[[0,0.5],[1,0.5]];portConstraint=eastwest;whiteSpace=wrap;html=1;" vertex="1" parent="Nk5dwlSrIomL0-U4kEKp-120">
          <mxGeometry y="164" width="160" height="26" as="geometry" />
        </mxCell>
        <mxCell id="Nk5dwlSrIomL0-U4kEKp-128" value="+ isAlive() const: bool" style="text;strokeColor=none;fillColor=none;align=left;verticalAlign=top;spacingLeft=4;spacingRight=4;overflow=hidden;rotatable=0;points=[[0,0.5],[1,0.5]];portConstraint=eastwest;whiteSpace=wrap;html=1;" vertex="1" parent="Nk5dwlSrIomL0-U4kEKp-120">
          <mxGeometry y="190" width="160" height="26" as="geometry" />
        </mxCell>
        <mxCell id="Nk5dwlSrIomL0-U4kEKp-129" value="" style="endArrow=block;dashed=1;endFill=0;endSize=12;html=1;rounded=0;exitX=0.5;exitY=0;exitDx=0;exitDy=0;entryX=0;entryY=0.5;entryDx=0;entryDy=0;" edge="1" parent="1" source="Nk5dwlSrIomL0-U4kEKp-120" target="Nk5dwlSrIomL0-U4kEKp-2">
          <mxGeometry width="160" relative="1" as="geometry">
            <mxPoint x="440" y="-430" as="sourcePoint" />
            <mxPoint x="600" y="-430" as="targetPoint" />
          </mxGeometry>
        </mxCell>
        <mxCell id="Nk5dwlSrIomL0-U4kEKp-130" value="Maze" style="swimlane;fontStyle=1;align=center;verticalAlign=top;childLayout=stackLayout;horizontal=1;startSize=26;horizontalStack=0;resizeParent=1;resizeParentMax=0;resizeLast=0;collapsible=1;marginBottom=0;whiteSpace=wrap;html=1;" vertex="1" parent="1">
          <mxGeometry x="1230" y="-530" width="590" height="294" as="geometry" />
        </mxCell>
        <mxCell id="Nk5dwlSrIomL0-U4kEKp-131" value="- walls: vector&amp;lt;Wall&amp;gt;" style="text;strokeColor=none;fillColor=none;align=left;verticalAlign=top;spacingLeft=4;spacingRight=4;overflow=hidden;rotatable=0;points=[[0,0.5],[1,0.5]];portConstraint=eastwest;whiteSpace=wrap;html=1;" vertex="1" parent="Nk5dwlSrIomL0-U4kEKp-130">
          <mxGeometry y="26" width="590" height="26" as="geometry" />
        </mxCell>
        <mxCell id="Nk5dwlSrIomL0-U4kEKp-134" value="- width: int" style="text;strokeColor=none;fillColor=none;align=left;verticalAlign=top;spacingLeft=4;spacingRight=4;overflow=hidden;rotatable=0;points=[[0,0.5],[1,0.5]];portConstraint=eastwest;whiteSpace=wrap;html=1;" vertex="1" parent="Nk5dwlSrIomL0-U4kEKp-130">
          <mxGeometry y="52" width="590" height="26" as="geometry" />
        </mxCell>
        <mxCell id="Nk5dwlSrIomL0-U4kEKp-135" value="- height: int" style="text;strokeColor=none;fillColor=none;align=left;verticalAlign=top;spacingLeft=4;spacingRight=4;overflow=hidden;rotatable=0;points=[[0,0.5],[1,0.5]];portConstraint=eastwest;whiteSpace=wrap;html=1;" vertex="1" parent="Nk5dwlSrIomL0-U4kEKp-130">
          <mxGeometry y="78" width="590" height="26" as="geometry" />
        </mxCell>
        <mxCell id="Nk5dwlSrIomL0-U4kEKp-136" value="- startX: int" style="text;strokeColor=none;fillColor=none;align=left;verticalAlign=top;spacingLeft=4;spacingRight=4;overflow=hidden;rotatable=0;points=[[0,0.5],[1,0.5]];portConstraint=eastwest;whiteSpace=wrap;html=1;" vertex="1" parent="Nk5dwlSrIomL0-U4kEKp-130">
          <mxGeometry y="104" width="590" height="26" as="geometry" />
        </mxCell>
        <mxCell id="Nk5dwlSrIomL0-U4kEKp-137" value="- startY: int" style="text;strokeColor=none;fillColor=none;align=left;verticalAlign=top;spacingLeft=4;spacingRight=4;overflow=hidden;rotatable=0;points=[[0,0.5],[1,0.5]];portConstraint=eastwest;whiteSpace=wrap;html=1;" vertex="1" parent="Nk5dwlSrIomL0-U4kEKp-130">
          <mxGeometry y="130" width="590" height="26" as="geometry" />
        </mxCell>
        <mxCell id="Nk5dwlSrIomL0-U4kEKp-132" value="" style="line;strokeWidth=1;fillColor=none;align=left;verticalAlign=middle;spacingTop=-1;spacingLeft=3;spacingRight=3;rotatable=0;labelPosition=right;points=[];portConstraint=eastwest;strokeColor=inherit;" vertex="1" parent="Nk5dwlSrIomL0-U4kEKp-130">
          <mxGeometry y="156" width="590" height="8" as="geometry" />
        </mxCell>
        <mxCell id="Nk5dwlSrIomL0-U4kEKp-133" value="+ Maze()" style="text;strokeColor=none;fillColor=none;align=left;verticalAlign=top;spacingLeft=4;spacingRight=4;overflow=hidden;rotatable=0;points=[[0,0.5],[1,0.5]];portConstraint=eastwest;whiteSpace=wrap;html=1;" vertex="1" parent="Nk5dwlSrIomL0-U4kEKp-130">
          <mxGeometry y="164" width="590" height="26" as="geometry" />
        </mxCell>
        <mxCell id="Nk5dwlSrIomL0-U4kEKp-138" value="+ ~Maze()" style="text;strokeColor=none;fillColor=none;align=left;verticalAlign=top;spacingLeft=4;spacingRight=4;overflow=hidden;rotatable=0;points=[[0,0.5],[1,0.5]];portConstraint=eastwest;whiteSpace=wrap;html=1;" vertex="1" parent="Nk5dwlSrIomL0-U4kEKp-130">
          <mxGeometry y="190" width="590" height="26" as="geometry" />
        </mxCell>
        <mxCell id="Nk5dwlSrIomL0-U4kEKp-141" value="+ initialiseCustomWalls(): void" style="text;strokeColor=none;fillColor=none;align=left;verticalAlign=top;spacingLeft=4;spacingRight=4;overflow=hidden;rotatable=0;points=[[0,0.5],[1,0.5]];portConstraint=eastwest;whiteSpace=wrap;html=1;" vertex="1" parent="Nk5dwlSrIomL0-U4kEKp-130">
          <mxGeometry y="216" width="590" height="26" as="geometry" />
        </mxCell>
        <mxCell id="Nk5dwlSrIomL0-U4kEKp-140" value="+ isWall(pacmanx: int, pacmanY: int, pacmanRadius: int) const: bool" style="text;strokeColor=none;fillColor=none;align=left;verticalAlign=top;spacingLeft=4;spacingRight=4;overflow=hidden;rotatable=0;points=[[0,0.5],[1,0.5]];portConstraint=eastwest;whiteSpace=wrap;html=1;" vertex="1" parent="Nk5dwlSrIomL0-U4kEKp-130">
          <mxGeometry y="242" width="590" height="26" as="geometry" />
        </mxCell>
        <mxCell id="Nk5dwlSrIomL0-U4kEKp-150" value="+ isWallRec(pacmanx: int, pacmanY: int, pacmanRadius: int) const: bool" style="text;strokeColor=none;fillColor=none;align=left;verticalAlign=top;spacingLeft=4;spacingRight=4;overflow=hidden;rotatable=0;points=[[0,0.5],[1,0.5]];portConstraint=eastwest;whiteSpace=wrap;html=1;" vertex="1" parent="Nk5dwlSrIomL0-U4kEKp-130">
          <mxGeometry y="268" width="590" height="26" as="geometry" />
        </mxCell>
        <mxCell id="Nk5dwlSrIomL0-U4kEKp-151" value="Extends" style="endArrow=block;endSize=16;endFill=0;html=1;rounded=0;exitX=0.5;exitY=0;exitDx=0;exitDy=0;" edge="1" parent="1" source="Nk5dwlSrIomL0-U4kEKp-130">
          <mxGeometry width="160" relative="1" as="geometry">
            <mxPoint x="1460" y="-650" as="sourcePoint" />
            <mxPoint x="1620" y="-650" as="targetPoint" />
          </mxGeometry>
        </mxCell>
        <mxCell id="Nk5dwlSrIomL0-U4kEKp-152" value="Reader" style="text;html=1;align=center;verticalAlign=middle;resizable=0;points=[];autosize=1;strokeColor=none;fillColor=none;" vertex="1" parent="1">
          <mxGeometry x="1640" y="-672" width="60" height="30" as="geometry" />
        </mxCell>
        <mxCell id="Nk5dwlSrIomL0-U4kEKp-157" value="PacMan" style="swimlane;fontStyle=1;align=center;verticalAlign=top;childLayout=stackLayout;horizontal=1;startSize=26;horizontalStack=0;resizeParent=1;resizeParentMax=0;resizeLast=0;collapsible=1;marginBottom=0;whiteSpace=wrap;html=1;" vertex="1" parent="1">
          <mxGeometry x="1260" y="-1280" width="380" height="606" as="geometry" />
        </mxCell>
        <mxCell id="Nk5dwlSrIomL0-U4kEKp-161" value="- x: float" style="text;strokeColor=none;fillColor=none;align=left;verticalAlign=top;spacingLeft=4;spacingRight=4;overflow=hidden;rotatable=0;points=[[0,0.5],[1,0.5]];portConstraint=eastwest;whiteSpace=wrap;html=1;" vertex="1" parent="Nk5dwlSrIomL0-U4kEKp-157">
          <mxGeometry y="26" width="380" height="26" as="geometry" />
        </mxCell>
        <mxCell id="Nk5dwlSrIomL0-U4kEKp-162" value="- y: float" style="text;strokeColor=none;fillColor=none;align=left;verticalAlign=top;spacingLeft=4;spacingRight=4;overflow=hidden;rotatable=0;points=[[0,0.5],[1,0.5]];portConstraint=eastwest;whiteSpace=wrap;html=1;" vertex="1" parent="Nk5dwlSrIomL0-U4kEKp-157">
          <mxGeometry y="52" width="380" height="26" as="geometry" />
        </mxCell>
        <mxCell id="Nk5dwlSrIomL0-U4kEKp-158" value="- dx: float" style="text;strokeColor=none;fillColor=none;align=left;verticalAlign=top;spacingLeft=4;spacingRight=4;overflow=hidden;rotatable=0;points=[[0,0.5],[1,0.5]];portConstraint=eastwest;whiteSpace=wrap;html=1;" vertex="1" parent="Nk5dwlSrIomL0-U4kEKp-157">
          <mxGeometry y="78" width="380" height="26" as="geometry" />
        </mxCell>
        <mxCell id="Nk5dwlSrIomL0-U4kEKp-163" value="- dy: float" style="text;strokeColor=none;fillColor=none;align=left;verticalAlign=top;spacingLeft=4;spacingRight=4;overflow=hidden;rotatable=0;points=[[0,0.5],[1,0.5]];portConstraint=eastwest;whiteSpace=wrap;html=1;" vertex="1" parent="Nk5dwlSrIomL0-U4kEKp-157">
          <mxGeometry y="104" width="380" height="26" as="geometry" />
        </mxCell>
        <mxCell id="Nk5dwlSrIomL0-U4kEKp-173" value="- newDirection: int" style="text;strokeColor=none;fillColor=none;align=left;verticalAlign=top;spacingLeft=4;spacingRight=4;overflow=hidden;rotatable=1;points=[[0,0.5],[1,0.5]];portConstraint=eastwest;whiteSpace=wrap;html=1;movable=1;resizable=1;deletable=1;editable=1;locked=0;connectable=1;" vertex="1" parent="Nk5dwlSrIomL0-U4kEKp-157">
          <mxGeometry y="130" width="380" height="26" as="geometry" />
        </mxCell>
        <mxCell id="Nk5dwlSrIomL0-U4kEKp-172" value="- radius: int" style="text;strokeColor=none;fillColor=none;align=left;verticalAlign=top;spacingLeft=4;spacingRight=4;overflow=hidden;rotatable=1;points=[[0,0.5],[1,0.5]];portConstraint=eastwest;whiteSpace=wrap;html=1;movable=1;resizable=1;deletable=1;editable=1;locked=0;connectable=1;" vertex="1" parent="Nk5dwlSrIomL0-U4kEKp-157">
          <mxGeometry y="156" width="380" height="26" as="geometry" />
        </mxCell>
        <mxCell id="Nk5dwlSrIomL0-U4kEKp-171" value="- visualRadius: float" style="text;strokeColor=none;fillColor=none;align=left;verticalAlign=top;spacingLeft=4;spacingRight=4;overflow=hidden;rotatable=1;points=[[0,0.5],[1,0.5]];portConstraint=eastwest;whiteSpace=wrap;html=1;movable=1;resizable=1;deletable=1;editable=1;locked=0;connectable=1;" vertex="1" parent="Nk5dwlSrIomL0-U4kEKp-157">
          <mxGeometry y="182" width="380" height="26" as="geometry" />
        </mxCell>
        <mxCell id="Nk5dwlSrIomL0-U4kEKp-170" value="- normalSpeed: float" style="text;strokeColor=none;fillColor=none;align=left;verticalAlign=top;spacingLeft=4;spacingRight=4;overflow=hidden;rotatable=1;points=[[0,0.5],[1,0.5]];portConstraint=eastwest;whiteSpace=wrap;html=1;movable=1;resizable=1;deletable=1;editable=1;locked=0;connectable=1;" vertex="1" parent="Nk5dwlSrIomL0-U4kEKp-157">
          <mxGeometry y="208" width="380" height="26" as="geometry" />
        </mxCell>
        <mxCell id="Nk5dwlSrIomL0-U4kEKp-169" value="- superSpeed: float" style="text;strokeColor=none;fillColor=none;align=left;verticalAlign=top;spacingLeft=4;spacingRight=4;overflow=hidden;rotatable=1;points=[[0,0.5],[1,0.5]];portConstraint=eastwest;whiteSpace=wrap;html=1;movable=1;resizable=1;deletable=1;editable=1;locked=0;connectable=1;" vertex="1" parent="Nk5dwlSrIomL0-U4kEKp-157">
          <mxGeometry y="234" width="380" height="26" as="geometry" />
        </mxCell>
        <mxCell id="Nk5dwlSrIomL0-U4kEKp-168" value="- superModeActive: bool" style="text;strokeColor=none;fillColor=none;align=left;verticalAlign=top;spacingLeft=4;spacingRight=4;overflow=hidden;rotatable=1;points=[[0,0.5],[1,0.5]];portConstraint=eastwest;whiteSpace=wrap;html=1;movable=1;resizable=1;deletable=1;editable=1;locked=0;connectable=1;" vertex="1" parent="Nk5dwlSrIomL0-U4kEKp-157">
          <mxGeometry y="260" width="380" height="26" as="geometry" />
        </mxCell>
        <mxCell id="Nk5dwlSrIomL0-U4kEKp-167" value="- superModeDuration: float" style="text;strokeColor=none;fillColor=none;align=left;verticalAlign=top;spacingLeft=4;spacingRight=4;overflow=hidden;rotatable=0;points=[[0,0.5],[1,0.5]];portConstraint=eastwest;whiteSpace=wrap;html=1;" vertex="1" parent="Nk5dwlSrIomL0-U4kEKp-157">
          <mxGeometry y="286" width="380" height="26" as="geometry" />
        </mxCell>
        <mxCell id="Nk5dwlSrIomL0-U4kEKp-166" value="- superModeTimer: float" style="text;strokeColor=none;fillColor=none;align=left;verticalAlign=top;spacingLeft=4;spacingRight=4;overflow=hidden;rotatable=0;points=[[0,0.5],[1,0.5]];portConstraint=eastwest;whiteSpace=wrap;html=1;" vertex="1" parent="Nk5dwlSrIomL0-U4kEKp-157">
          <mxGeometry y="312" width="380" height="26" as="geometry" />
        </mxCell>
        <mxCell id="Nk5dwlSrIomL0-U4kEKp-165" value="- invincible: bool" style="text;strokeColor=none;fillColor=none;align=left;verticalAlign=top;spacingLeft=4;spacingRight=4;overflow=hidden;rotatable=0;points=[[0,0.5],[1,0.5]];portConstraint=eastwest;whiteSpace=wrap;html=1;" vertex="1" parent="Nk5dwlSrIomL0-U4kEKp-157">
          <mxGeometry y="338" width="380" height="26" as="geometry" />
        </mxCell>
        <mxCell id="Nk5dwlSrIomL0-U4kEKp-164" value="- invincibilityTime: float" style="text;strokeColor=none;fillColor=none;align=left;verticalAlign=top;spacingLeft=4;spacingRight=4;overflow=hidden;rotatable=0;points=[[0,0.5],[1,0.5]];portConstraint=eastwest;whiteSpace=wrap;html=1;" vertex="1" parent="Nk5dwlSrIomL0-U4kEKp-157">
          <mxGeometry y="364" width="380" height="26" as="geometry" />
        </mxCell>
        <mxCell id="Nk5dwlSrIomL0-U4kEKp-174" value="- invincibilityDuration: float" style="text;strokeColor=none;fillColor=none;align=left;verticalAlign=top;spacingLeft=4;spacingRight=4;overflow=hidden;rotatable=1;points=[[0,0.5],[1,0.5]];portConstraint=eastwest;whiteSpace=wrap;html=1;movable=1;resizable=1;deletable=1;editable=1;locked=0;connectable=1;" vertex="1" parent="Nk5dwlSrIomL0-U4kEKp-157">
          <mxGeometry y="390" width="380" height="26" as="geometry" />
        </mxCell>
        <mxCell id="Nk5dwlSrIomL0-U4kEKp-159" value="" style="line;strokeWidth=1;fillColor=none;align=left;verticalAlign=middle;spacingTop=-1;spacingLeft=3;spacingRight=3;rotatable=0;labelPosition=right;points=[];portConstraint=eastwest;strokeColor=inherit;" vertex="1" parent="Nk5dwlSrIomL0-U4kEKp-157">
          <mxGeometry y="416" width="380" height="8" as="geometry" />
        </mxCell>
        <mxCell id="Nk5dwlSrIomL0-U4kEKp-160" value="+ PacMan(startX: int, startY: int)" style="text;strokeColor=none;fillColor=none;align=left;verticalAlign=top;spacingLeft=4;spacingRight=4;overflow=hidden;rotatable=0;points=[[0,0.5],[1,0.5]];portConstraint=eastwest;whiteSpace=wrap;html=1;" vertex="1" parent="Nk5dwlSrIomL0-U4kEKp-157">
          <mxGeometry y="424" width="380" height="26" as="geometry" />
        </mxCell>
        <mxCell id="Nk5dwlSrIomL0-U4kEKp-175" value="+ ~PacMan()" style="text;strokeColor=none;fillColor=none;align=left;verticalAlign=top;spacingLeft=4;spacingRight=4;overflow=hidden;rotatable=0;points=[[0,0.5],[1,0.5]];portConstraint=eastwest;whiteSpace=wrap;html=1;" vertex="1" parent="Nk5dwlSrIomL0-U4kEKp-157">
          <mxGeometry y="450" width="380" height="26" as="geometry" />
        </mxCell>
        <mxCell id="Nk5dwlSrIomL0-U4kEKp-176" value="+ setDirection(direction: Direction): void" style="text;strokeColor=none;fillColor=none;align=left;verticalAlign=top;spacingLeft=4;spacingRight=4;overflow=hidden;rotatable=0;points=[[0,0.5],[1,0.5]];portConstraint=eastwest;whiteSpace=wrap;html=1;" vertex="1" parent="Nk5dwlSrIomL0-U4kEKp-157">
          <mxGeometry y="476" width="380" height="26" as="geometry" />
        </mxCell>
        <mxCell id="Nk5dwlSrIomL0-U4kEKp-177" value="+ location(frame: int) const: int" style="text;strokeColor=none;fillColor=none;align=left;verticalAlign=top;spacingLeft=4;spacingRight=4;overflow=hidden;rotatable=0;points=[[0,0.5],[1,0.5]];portConstraint=eastwest;whiteSpace=wrap;html=1;" vertex="1" parent="Nk5dwlSrIomL0-U4kEKp-157">
          <mxGeometry y="502" width="380" height="26" as="geometry" />
        </mxCell>
        <mxCell id="Nk5dwlSrIomL0-U4kEKp-178" value="+ move(maze: Maze&amp;amp;, deltaTime: float, direction: Direction): void" style="text;strokeColor=none;fillColor=none;align=left;verticalAlign=top;spacingLeft=4;spacingRight=4;overflow=hidden;rotatable=0;points=[[0,0.5],[1,0.5]];portConstraint=eastwest;whiteSpace=wrap;html=1;" vertex="1" parent="Nk5dwlSrIomL0-U4kEKp-157">
          <mxGeometry y="528" width="380" height="26" as="geometry" />
        </mxCell>
        <mxCell id="Nk5dwlSrIomL0-U4kEKp-179" value="+ updateInvincibility(deltaTime: float): void" style="text;strokeColor=none;fillColor=none;align=left;verticalAlign=top;spacingLeft=4;spacingRight=4;overflow=hidden;rotatable=0;points=[[0,0.5],[1,0.5]];portConstraint=eastwest;whiteSpace=wrap;html=1;" vertex="1" parent="Nk5dwlSrIomL0-U4kEKp-157">
          <mxGeometry y="554" width="380" height="26" as="geometry" />
        </mxCell>
        <mxCell id="Nk5dwlSrIomL0-U4kEKp-180" value="+ updateSuperMode(deltaTime: float): void" style="text;strokeColor=none;fillColor=none;align=left;verticalAlign=top;spacingLeft=4;spacingRight=4;overflow=hidden;rotatable=0;points=[[0,0.5],[1,0.5]];portConstraint=eastwest;whiteSpace=wrap;html=1;" vertex="1" parent="Nk5dwlSrIomL0-U4kEKp-157">
          <mxGeometry y="580" width="380" height="26" as="geometry" />
        </mxCell>
        <mxCell id="Nk5dwlSrIomL0-U4kEKp-186" value="" style="endArrow=classic;html=1;rounded=0;exitX=0.5;exitY=1.038;exitDx=0;exitDy=0;exitPerimeter=0;entryX=0.146;entryY=0;entryDx=0;entryDy=0;entryPerimeter=0;" edge="1" parent="1" source="Nk5dwlSrIomL0-U4kEKp-180" target="Nk5dwlSrIomL0-U4kEKp-130">
          <mxGeometry width="50" height="50" relative="1" as="geometry">
            <mxPoint x="1230" y="-570" as="sourcePoint" />
            <mxPoint x="1280" y="-620" as="targetPoint" />
          </mxGeometry>
        </mxCell>
        <mxCell id="Nk5dwlSrIomL0-U4kEKp-187" value="PacManManager" style="swimlane;fontStyle=1;align=center;verticalAlign=top;childLayout=stackLayout;horizontal=1;startSize=26;horizontalStack=0;resizeParent=1;resizeParentMax=0;resizeLast=0;collapsible=1;marginBottom=0;whiteSpace=wrap;html=1;" vertex="1" parent="1">
          <mxGeometry x="1860" y="-1290" width="240" height="112" as="geometry" />
        </mxCell>
        <mxCell id="Nk5dwlSrIomL0-U4kEKp-188" value="- game: Game&amp;amp;" style="text;strokeColor=none;fillColor=none;align=left;verticalAlign=top;spacingLeft=4;spacingRight=4;overflow=hidden;rotatable=0;points=[[0,0.5],[1,0.5]];portConstraint=eastwest;whiteSpace=wrap;html=1;" vertex="1" parent="Nk5dwlSrIomL0-U4kEKp-187">
          <mxGeometry y="26" width="240" height="26" as="geometry" />
        </mxCell>
        <mxCell id="Nk5dwlSrIomL0-U4kEKp-189" value="" style="line;strokeWidth=1;fillColor=none;align=left;verticalAlign=middle;spacingTop=-1;spacingLeft=3;spacingRight=3;rotatable=0;labelPosition=right;points=[];portConstraint=eastwest;strokeColor=inherit;" vertex="1" parent="Nk5dwlSrIomL0-U4kEKp-187">
          <mxGeometry y="52" width="240" height="8" as="geometry" />
        </mxCell>
        <mxCell id="Nk5dwlSrIomL0-U4kEKp-190" value="+ PacManManager(game: Game&amp;amp;)" style="text;strokeColor=none;fillColor=none;align=left;verticalAlign=top;spacingLeft=4;spacingRight=4;overflow=hidden;rotatable=0;points=[[0,0.5],[1,0.5]];portConstraint=eastwest;whiteSpace=wrap;html=1;" vertex="1" parent="Nk5dwlSrIomL0-U4kEKp-187">
          <mxGeometry y="60" width="240" height="26" as="geometry" />
        </mxCell>
        <mxCell id="Nk5dwlSrIomL0-U4kEKp-192" value="+ updatePacMan(deltaTime: float): void" style="text;strokeColor=none;fillColor=none;align=left;verticalAlign=top;spacingLeft=4;spacingRight=4;overflow=hidden;rotatable=0;points=[[0,0.5],[1,0.5]];portConstraint=eastwest;whiteSpace=wrap;html=1;" vertex="1" parent="Nk5dwlSrIomL0-U4kEKp-187">
          <mxGeometry y="86" width="240" height="26" as="geometry" />
        </mxCell>
        <mxCell id="Nk5dwlSrIomL0-U4kEKp-193" value="" style="endArrow=classic;html=1;rounded=0;exitX=0.5;exitY=0;exitDx=0;exitDy=0;entryX=0.75;entryY=0;entryDx=0;entryDy=0;" edge="1" parent="1" source="Nk5dwlSrIomL0-U4kEKp-187" target="78961159f06e98e8-43">
          <mxGeometry width="50" height="50" relative="1" as="geometry">
            <mxPoint x="1150" y="-1210" as="sourcePoint" />
            <mxPoint x="1200" y="-1260" as="targetPoint" />
            <Array as="points">
              <mxPoint x="1470" y="-1370" />
              <mxPoint x="1220" y="-1340" />
            </Array>
          </mxGeometry>
        </mxCell>
        <mxCell id="Nk5dwlSrIomL0-U4kEKp-195" value="Use" style="endArrow=open;endSize=12;dashed=1;html=1;rounded=0;exitX=-0.012;exitY=-0.077;exitDx=0;exitDy=0;exitPerimeter=0;entryX=1;entryY=0.5;entryDx=0;entryDy=0;" edge="1" parent="1" source="Nk5dwlSrIomL0-U4kEKp-188" target="Nk5dwlSrIomL0-U4kEKp-158">
          <mxGeometry width="160" relative="1" as="geometry">
            <mxPoint x="1840" y="-1030" as="sourcePoint" />
            <mxPoint x="2000" y="-1030" as="targetPoint" />
          </mxGeometry>
        </mxCell>
        <mxCell id="Nk5dwlSrIomL0-U4kEKp-196" value="Use" style="endArrow=open;endSize=12;dashed=1;html=1;rounded=0;exitX=0.504;exitY=0.923;exitDx=0;exitDy=0;exitPerimeter=0;entryX=0.895;entryY=-0.014;entryDx=0;entryDy=0;entryPerimeter=0;" edge="1" parent="1" source="Nk5dwlSrIomL0-U4kEKp-192" target="Nk5dwlSrIomL0-U4kEKp-130">
          <mxGeometry width="160" relative="1" as="geometry">
            <mxPoint x="1840" y="-950" as="sourcePoint" />
            <mxPoint x="2000" y="-950" as="targetPoint" />
          </mxGeometry>
        </mxCell>
        <mxCell id="Nk5dwlSrIomL0-U4kEKp-197" value="PowerPellet" style="swimlane;fontStyle=1;align=center;verticalAlign=top;childLayout=stackLayout;horizontal=1;startSize=26;horizontalStack=0;resizeParent=1;resizeParentMax=0;resizeLast=0;collapsible=1;marginBottom=0;whiteSpace=wrap;html=1;" vertex="1" parent="1">
          <mxGeometry x="60" y="630" width="360" height="112" as="geometry" />
        </mxCell>
        <mxCell id="Nk5dwlSrIomL0-U4kEKp-199" value="" style="line;strokeWidth=1;fillColor=none;align=left;verticalAlign=middle;spacingTop=-1;spacingLeft=3;spacingRight=3;rotatable=0;labelPosition=right;points=[];portConstraint=eastwest;strokeColor=inherit;" vertex="1" parent="Nk5dwlSrIomL0-U4kEKp-197">
          <mxGeometry y="26" width="360" height="8" as="geometry" />
        </mxCell>
        <mxCell id="Nk5dwlSrIomL0-U4kEKp-200" value="+ PowerPellet(x: float, y: float)" style="text;strokeColor=none;fillColor=none;align=left;verticalAlign=top;spacingLeft=4;spacingRight=4;overflow=hidden;rotatable=0;points=[[0,0.5],[1,0.5]];portConstraint=eastwest;whiteSpace=wrap;html=1;" vertex="1" parent="Nk5dwlSrIomL0-U4kEKp-197">
          <mxGeometry y="34" width="360" height="26" as="geometry" />
        </mxCell>
        <mxCell id="Nk5dwlSrIomL0-U4kEKp-201" value="+ ~PowerPellet()" style="text;strokeColor=none;fillColor=none;align=left;verticalAlign=top;spacingLeft=4;spacingRight=4;overflow=hidden;rotatable=0;points=[[0,0.5],[1,0.5]];portConstraint=eastwest;whiteSpace=wrap;html=1;" vertex="1" parent="Nk5dwlSrIomL0-U4kEKp-197">
          <mxGeometry y="60" width="360" height="26" as="geometry" />
        </mxCell>
        <mxCell id="Nk5dwlSrIomL0-U4kEKp-202" value="+ checkCollisionWithPacMan(pacMan: PacMan&amp;amp;): bool" style="text;strokeColor=none;fillColor=none;align=left;verticalAlign=top;spacingLeft=4;spacingRight=4;overflow=hidden;rotatable=0;points=[[0,0.5],[1,0.5]];portConstraint=eastwest;whiteSpace=wrap;html=1;" vertex="1" parent="Nk5dwlSrIomL0-U4kEKp-197">
          <mxGeometry y="86" width="360" height="26" as="geometry" />
        </mxCell>
        <mxCell id="Nk5dwlSrIomL0-U4kEKp-203" value="Use" style="endArrow=open;endSize=12;dashed=1;html=1;rounded=0;exitX=0.5;exitY=0;exitDx=0;exitDy=0;entryX=-0.005;entryY=0.038;entryDx=0;entryDy=0;entryPerimeter=0;" edge="1" parent="1" source="Nk5dwlSrIomL0-U4kEKp-197" target="Nk5dwlSrIomL0-U4kEKp-163">
          <mxGeometry width="160" relative="1" as="geometry">
            <mxPoint x="440" y="600" as="sourcePoint" />
            <mxPoint x="600" y="600" as="targetPoint" />
          </mxGeometry>
        </mxCell>
        <mxCell id="Nk5dwlSrIomL0-U4kEKp-204" value="Extends" style="endArrow=block;endSize=16;endFill=0;html=1;rounded=0;exitX=0.75;exitY=0;exitDx=0;exitDy=0;" edge="1" parent="1" source="Nk5dwlSrIomL0-U4kEKp-197">
          <mxGeometry width="160" relative="1" as="geometry">
            <mxPoint x="420" y="750" as="sourcePoint" />
            <mxPoint x="380" y="310" as="targetPoint" />
          </mxGeometry>
        </mxCell>
      </root>
    </mxGraphModel>
  </diagram>
</mxfile>
